<svg xmlns="http://www.w3.org/2000/svg" xmlns:xlink="http://www.w3.org/1999/xlink" width="500" zoomAndPan="magnify" viewBox="0 0 375 374.999991" height="500" preserveAspectRatio="xMidYMid meet" version="1.0"><defs><g/><clipPath id="b58c6d50c8"><path d="M 133.527344 99.40625 L 241.527344 99.40625 L 241.527344 214.90625 L 133.527344 214.90625 Z M 133.527344 99.40625 " clip-rule="nonzero"/></clipPath></defs><g fill="#003a47" fill-opacity="1"><g transform="translate(130.957301, 249.359045)"><g><path d="M 6 0.109375 C 4.914062 0.109375 4.054688 -0.203125 3.421875 -0.828125 C 2.785156 -1.460938 2.46875 -2.328125 2.46875 -3.421875 L 2.46875 -23.0625 C 2.75 -23.113281 3.191406 -23.179688 3.796875 -23.265625 C 4.410156 -23.359375 4.992188 -23.40625 5.546875 -23.40625 C 6.128906 -23.40625 6.640625 -23.359375 7.078125 -23.265625 C 7.523438 -23.179688 7.898438 -23.023438 8.203125 -22.796875 C 8.503906 -22.566406 8.734375 -22.25 8.890625 -21.84375 C 9.046875 -21.4375 9.125 -20.90625 9.125 -20.25 L 9.125 -5.25 L 17.828125 -5.25 C 18.003906 -4.96875 18.164062 -4.59375 18.3125 -4.125 C 18.46875 -3.65625 18.546875 -3.164062 18.546875 -2.65625 C 18.546875 -1.644531 18.328125 -0.929688 17.890625 -0.515625 C 17.460938 -0.0976562 16.894531 0.109375 16.1875 0.109375 Z M 6 0.109375 "/></g></g></g><g fill="#003a47" fill-opacity="1"><g transform="translate(150.44732, 249.359045)"><g><path d="M 2.46875 -19.5 C 2.46875 -20.582031 2.785156 -21.441406 3.421875 -22.078125 C 4.054688 -22.710938 4.914062 -23.03125 6 -23.03125 L 18.546875 -23.03125 C 18.722656 -22.75 18.878906 -22.378906 19.015625 -21.921875 C 19.160156 -21.460938 19.234375 -20.984375 19.234375 -20.484375 C 19.234375 -19.515625 19.019531 -18.828125 18.59375 -18.421875 C 18.175781 -18.023438 17.628906 -17.828125 16.953125 -17.828125 L 8.9375 -17.828125 L 8.9375 -14.28125 L 17.484375 -14.28125 C 17.660156 -14.007812 17.816406 -13.648438 17.953125 -13.203125 C 18.085938 -12.765625 18.15625 -12.289062 18.15625 -11.78125 C 18.15625 -10.820312 17.953125 -10.140625 17.546875 -9.734375 C 17.148438 -9.328125 16.609375 -9.125 15.921875 -9.125 L 8.9375 -9.125 L 8.9375 -5.125 L 18.703125 -5.125 C 18.878906 -4.851562 19.035156 -4.488281 19.171875 -4.03125 C 19.304688 -3.570312 19.375 -3.085938 19.375 -2.578125 C 19.375 -1.617188 19.164062 -0.929688 18.75 -0.515625 C 18.332031 -0.0976562 17.78125 0.109375 17.09375 0.109375 L 6 0.109375 C 4.914062 0.109375 4.054688 -0.203125 3.421875 -0.828125 C 2.785156 -1.460938 2.46875 -2.328125 2.46875 -3.421875 Z M 2.46875 -19.5 "/></g></g></g><g fill="#003a47" fill-opacity="1"><g transform="translate(171.267063, 249.359045)"><g><path d="M 7.375 -22.34375 C 7.800781 -22.59375 8.453125 -22.832031 9.328125 -23.0625 C 10.203125 -23.289062 11.082031 -23.40625 11.96875 -23.40625 C 13.238281 -23.40625 14.359375 -23.222656 15.328125 -22.859375 C 16.304688 -22.492188 16.9375 -21.914062 17.21875 -21.125 C 17.664062 -19.8125 18.15625 -18.28125 18.6875 -16.53125 C 19.226562 -14.78125 19.765625 -12.972656 20.296875 -11.109375 C 20.828125 -9.253906 21.34375 -7.421875 21.84375 -5.609375 C 22.351562 -3.796875 22.800781 -2.191406 23.1875 -0.796875 C 22.875 -0.441406 22.414062 -0.160156 21.8125 0.046875 C 21.207031 0.265625 20.484375 0.375 19.640625 0.375 C 19.035156 0.375 18.523438 0.320312 18.109375 0.21875 C 17.691406 0.125 17.347656 -0.0195312 17.078125 -0.21875 C 16.816406 -0.425781 16.601562 -0.691406 16.4375 -1.015625 C 16.269531 -1.347656 16.125 -1.734375 16 -2.171875 L 15.3125 -4.78125 L 8.4375 -4.78125 C 8.226562 -4.019531 8.023438 -3.234375 7.828125 -2.421875 C 7.628906 -1.617188 7.425781 -0.835938 7.21875 -0.078125 C 6.863281 0.046875 6.488281 0.148438 6.09375 0.234375 C 5.707031 0.328125 5.234375 0.375 4.671875 0.375 C 3.378906 0.375 2.421875 0.15625 1.796875 -0.28125 C 1.179688 -0.726562 0.875 -1.34375 0.875 -2.125 C 0.875 -2.476562 0.921875 -2.832031 1.015625 -3.1875 C 1.117188 -3.539062 1.238281 -3.960938 1.375 -4.453125 C 1.550781 -5.128906 1.796875 -5.972656 2.109375 -6.984375 C 2.421875 -8.003906 2.765625 -9.101562 3.140625 -10.28125 C 3.523438 -11.457031 3.929688 -12.664062 4.359375 -13.90625 C 4.796875 -15.144531 5.203125 -16.316406 5.578125 -17.421875 C 5.960938 -18.523438 6.3125 -19.503906 6.625 -20.359375 C 6.945312 -21.222656 7.195312 -21.882812 7.375 -22.34375 Z M 11.9375 -17.4375 C 11.582031 -16.375 11.179688 -15.191406 10.734375 -13.890625 C 10.285156 -12.585938 9.882812 -11.265625 9.53125 -9.921875 L 14.25 -9.921875 C 13.894531 -11.285156 13.53125 -12.617188 13.15625 -13.921875 C 12.789062 -15.234375 12.457031 -16.40625 12.15625 -17.4375 Z M 11.9375 -17.4375 "/></g></g></g><g fill="#003a47" fill-opacity="1"><g transform="translate(195.08819, 249.359045)"><g><path d="M 9.078125 -7.453125 L 9.078125 -0.15625 C 8.796875 -0.0703125 8.359375 0.00390625 7.765625 0.078125 C 7.171875 0.148438 6.582031 0.1875 6 0.1875 C 5.414062 0.1875 4.898438 0.140625 4.453125 0.046875 C 4.015625 -0.0351562 3.648438 -0.191406 3.359375 -0.421875 C 3.066406 -0.648438 2.84375 -0.960938 2.6875 -1.359375 C 2.539062 -1.765625 2.46875 -2.300781 2.46875 -2.96875 L 2.46875 -20.859375 C 2.46875 -21.390625 2.613281 -21.800781 2.90625 -22.09375 C 3.195312 -22.382812 3.597656 -22.617188 4.109375 -22.796875 C 4.960938 -23.097656 5.957031 -23.316406 7.09375 -23.453125 C 8.238281 -23.597656 9.457031 -23.671875 10.75 -23.671875 C 14.25 -23.671875 16.882812 -22.9375 18.65625 -21.46875 C 20.425781 -20 21.3125 -18.007812 21.3125 -15.5 C 21.3125 -13.925781 20.90625 -12.582031 20.09375 -11.46875 C 19.289062 -10.351562 18.332031 -9.492188 17.21875 -8.890625 C 18.125 -7.648438 19.019531 -6.484375 19.90625 -5.390625 C 20.789062 -4.304688 21.488281 -3.320312 22 -2.4375 C 21.75 -1.550781 21.285156 -0.875 20.609375 -0.40625 C 19.941406 0.0625 19.191406 0.296875 18.359375 0.296875 C 17.796875 0.296875 17.3125 0.234375 16.90625 0.109375 C 16.5 -0.015625 16.144531 -0.191406 15.84375 -0.421875 C 15.539062 -0.648438 15.257812 -0.925781 15 -1.25 C 14.75 -1.582031 14.507812 -1.9375 14.28125 -2.3125 L 11.09375 -7.453125 Z M 11.46875 -12.5 C 12.4375 -12.5 13.195312 -12.742188 13.75 -13.234375 C 14.3125 -13.734375 14.59375 -14.460938 14.59375 -15.421875 C 14.59375 -16.390625 14.28125 -17.117188 13.65625 -17.609375 C 13.039062 -18.109375 12.0625 -18.359375 10.71875 -18.359375 C 10.332031 -18.359375 10.023438 -18.34375 9.796875 -18.3125 C 9.578125 -18.289062 9.328125 -18.253906 9.046875 -18.203125 L 9.046875 -12.5 Z M 11.46875 -12.5 "/></g></g></g><g fill="#003a47" fill-opacity="1"><g transform="translate(218.225464, 249.359045)"><g><path d="M 23.328125 -0.796875 C 22.972656 -0.441406 22.457031 -0.171875 21.78125 0.015625 C 21.113281 0.203125 20.3125 0.296875 19.375 0.296875 C 18.4375 0.296875 17.550781 0.160156 16.71875 -0.109375 C 15.882812 -0.390625 15.203125 -1.0625 14.671875 -2.125 L 10.90625 -9.796875 C 10.53125 -10.585938 10.1875 -11.332031 9.875 -12.03125 C 9.570312 -12.726562 9.242188 -13.53125 8.890625 -14.4375 L 8.65625 -14.40625 C 8.757812 -13.03125 8.816406 -11.632812 8.828125 -10.21875 C 8.847656 -8.800781 8.859375 -7.410156 8.859375 -6.046875 L 8.859375 -0.15625 C 8.578125 -0.0703125 8.148438 0.00390625 7.578125 0.078125 C 7.003906 0.148438 6.441406 0.1875 5.890625 0.1875 C 5.328125 0.1875 4.832031 0.148438 4.40625 0.078125 C 3.976562 0.00390625 3.625 -0.144531 3.34375 -0.375 C 3.0625 -0.601562 2.84375 -0.914062 2.6875 -1.3125 C 2.539062 -1.707031 2.46875 -2.21875 2.46875 -2.84375 L 2.46875 -21.84375 C 2.820312 -22.351562 3.363281 -22.734375 4.09375 -22.984375 C 4.832031 -23.242188 5.617188 -23.375 6.453125 -23.375 C 7.390625 -23.375 8.28125 -23.226562 9.125 -22.9375 C 9.976562 -22.644531 10.660156 -21.976562 11.171875 -20.9375 L 14.96875 -13.265625 C 15.351562 -12.472656 15.695312 -11.726562 16 -11.03125 C 16.300781 -10.34375 16.628906 -9.539062 16.984375 -8.625 L 17.171875 -8.65625 C 17.078125 -10.03125 17.015625 -11.398438 16.984375 -12.765625 C 16.960938 -14.128906 16.953125 -15.5 16.953125 -16.875 L 16.953125 -23.03125 C 17.222656 -23.101562 17.644531 -23.175781 18.21875 -23.25 C 18.789062 -23.332031 19.351562 -23.375 19.90625 -23.375 C 21.019531 -23.375 21.867188 -23.175781 22.453125 -22.78125 C 23.035156 -22.382812 23.328125 -21.566406 23.328125 -20.328125 Z M 23.328125 -0.796875 "/></g></g></g><g fill="#003a47" fill-opacity="1"><g transform="translate(151.778608, 271.850373)"><g><path d="M 1.375 0 C 1.28125 0 1.195312 -0.03125 1.125 -0.09375 C 1.0625 -0.164062 1.03125 -0.25 1.03125 -0.34375 L 1.03125 -9.453125 C 1.03125 -9.554688 1.0625 -9.640625 1.125 -9.703125 C 1.195312 -9.765625 1.28125 -9.796875 1.375 -9.796875 L 5.546875 -9.796875 C 6.316406 -9.796875 6.953125 -9.679688 7.453125 -9.453125 C 7.953125 -9.234375 8.316406 -8.914062 8.546875 -8.5 C 8.785156 -8.09375 8.90625 -7.613281 8.90625 -7.0625 C 8.90625 -6.71875 8.84375 -6.414062 8.71875 -6.15625 C 8.59375 -5.894531 8.4375 -5.679688 8.25 -5.515625 C 8.070312 -5.347656 7.898438 -5.222656 7.734375 -5.140625 C 8.097656 -4.972656 8.414062 -4.691406 8.6875 -4.296875 C 8.96875 -3.910156 9.109375 -3.453125 9.109375 -2.921875 C 9.109375 -2.335938 8.972656 -1.828125 8.703125 -1.390625 C 8.441406 -0.953125 8.054688 -0.609375 7.546875 -0.359375 C 7.035156 -0.117188 6.410156 0 5.671875 0 Z M 3.265625 -1.65625 L 5.40625 -1.65625 C 5.863281 -1.65625 6.207031 -1.78125 6.4375 -2.03125 C 6.675781 -2.289062 6.796875 -2.59375 6.796875 -2.9375 C 6.796875 -3.300781 6.675781 -3.609375 6.4375 -3.859375 C 6.195312 -4.109375 5.851562 -4.234375 5.40625 -4.234375 L 3.265625 -4.234375 Z M 3.265625 -5.84375 L 5.28125 -5.84375 C 5.71875 -5.84375 6.046875 -5.953125 6.265625 -6.171875 C 6.484375 -6.390625 6.59375 -6.671875 6.59375 -7.015625 C 6.59375 -7.359375 6.484375 -7.628906 6.265625 -7.828125 C 6.046875 -8.035156 5.71875 -8.140625 5.28125 -8.140625 L 3.265625 -8.140625 Z M 3.265625 -5.84375 "/></g></g></g><g fill="#003a47" fill-opacity="1"><g transform="translate(167.103188, 271.850373)"><g><path d="M 5.046875 0.140625 C 4.222656 0.140625 3.5 0.00390625 2.875 -0.265625 C 2.257812 -0.546875 1.785156 -0.972656 1.453125 -1.546875 C 1.117188 -2.117188 0.953125 -2.847656 0.953125 -3.734375 L 0.953125 -9.453125 C 0.953125 -9.554688 0.984375 -9.640625 1.046875 -9.703125 C 1.109375 -9.765625 1.1875 -9.796875 1.28125 -9.796875 L 2.828125 -9.796875 C 2.929688 -9.796875 3.015625 -9.765625 3.078125 -9.703125 C 3.140625 -9.640625 3.171875 -9.554688 3.171875 -9.453125 L 3.171875 -3.75 C 3.171875 -3.070312 3.332031 -2.5625 3.65625 -2.21875 C 3.988281 -1.882812 4.453125 -1.71875 5.046875 -1.71875 C 5.617188 -1.71875 6.066406 -1.882812 6.390625 -2.21875 C 6.722656 -2.5625 6.890625 -3.070312 6.890625 -3.75 L 6.890625 -9.453125 C 6.890625 -9.554688 6.921875 -9.640625 6.984375 -9.703125 C 7.054688 -9.765625 7.140625 -9.796875 7.234375 -9.796875 L 8.78125 -9.796875 C 8.875 -9.796875 8.953125 -9.765625 9.015625 -9.703125 C 9.078125 -9.640625 9.109375 -9.554688 9.109375 -9.453125 L 9.109375 -3.734375 C 9.109375 -2.847656 8.941406 -2.117188 8.609375 -1.546875 C 8.285156 -0.972656 7.816406 -0.546875 7.203125 -0.265625 C 6.585938 0.00390625 5.867188 0.140625 5.046875 0.140625 Z M 5.046875 0.140625 "/></g></g></g><g fill="#003a47" fill-opacity="1"><g transform="translate(182.763583, 271.850373)"><g><path d="M 1.375 0 C 1.28125 0 1.195312 -0.03125 1.125 -0.09375 C 1.0625 -0.164062 1.03125 -0.25 1.03125 -0.34375 L 1.03125 -9.453125 C 1.03125 -9.554688 1.0625 -9.640625 1.125 -9.703125 C 1.195312 -9.765625 1.28125 -9.796875 1.375 -9.796875 L 4.90625 -9.796875 C 5.832031 -9.796875 6.609375 -9.648438 7.234375 -9.359375 C 7.859375 -9.066406 8.335938 -8.632812 8.671875 -8.0625 C 9.003906 -7.5 9.179688 -6.804688 9.203125 -5.984375 C 9.210938 -5.566406 9.21875 -5.203125 9.21875 -4.890625 C 9.21875 -4.585938 9.210938 -4.238281 9.203125 -3.84375 C 9.171875 -2.96875 8.992188 -2.242188 8.671875 -1.671875 C 8.359375 -1.109375 7.894531 -0.6875 7.28125 -0.40625 C 6.675781 -0.132812 5.90625 0 4.96875 0 Z M 3.265625 -1.8125 L 4.90625 -1.8125 C 5.363281 -1.8125 5.738281 -1.878906 6.03125 -2.015625 C 6.332031 -2.148438 6.554688 -2.367188 6.703125 -2.671875 C 6.859375 -2.984375 6.9375 -3.378906 6.9375 -3.859375 C 6.945312 -4.128906 6.953125 -4.367188 6.953125 -4.578125 C 6.960938 -4.796875 6.960938 -5.015625 6.953125 -5.234375 C 6.953125 -5.453125 6.945312 -5.691406 6.9375 -5.953125 C 6.925781 -6.648438 6.75 -7.160156 6.40625 -7.484375 C 6.0625 -7.816406 5.535156 -7.984375 4.828125 -7.984375 L 3.265625 -7.984375 Z M 3.265625 -1.8125 "/></g></g></g><g fill="#003a47" fill-opacity="1"><g transform="translate(198.284051, 271.850373)"><g><path d="M 1.375 0 C 1.28125 0 1.195312 -0.03125 1.125 -0.09375 C 1.0625 -0.164062 1.03125 -0.25 1.03125 -0.34375 L 1.03125 -9.453125 C 1.03125 -9.554688 1.0625 -9.640625 1.125 -9.703125 C 1.195312 -9.765625 1.28125 -9.796875 1.375 -9.796875 L 4.90625 -9.796875 C 5.832031 -9.796875 6.609375 -9.648438 7.234375 -9.359375 C 7.859375 -9.066406 8.335938 -8.632812 8.671875 -8.0625 C 9.003906 -7.5 9.179688 -6.804688 9.203125 -5.984375 C 9.210938 -5.566406 9.21875 -5.203125 9.21875 -4.890625 C 9.21875 -4.585938 9.210938 -4.238281 9.203125 -3.84375 C 9.171875 -2.96875 8.992188 -2.242188 8.671875 -1.671875 C 8.359375 -1.109375 7.894531 -0.6875 7.28125 -0.40625 C 6.675781 -0.132812 5.90625 0 4.96875 0 Z M 3.265625 -1.8125 L 4.90625 -1.8125 C 5.363281 -1.8125 5.738281 -1.878906 6.03125 -2.015625 C 6.332031 -2.148438 6.554688 -2.367188 6.703125 -2.671875 C 6.859375 -2.984375 6.9375 -3.378906 6.9375 -3.859375 C 6.945312 -4.128906 6.953125 -4.367188 6.953125 -4.578125 C 6.960938 -4.796875 6.960938 -5.015625 6.953125 -5.234375 C 6.953125 -5.453125 6.945312 -5.691406 6.9375 -5.953125 C 6.925781 -6.648438 6.75 -7.160156 6.40625 -7.484375 C 6.0625 -7.816406 5.535156 -7.984375 4.828125 -7.984375 L 3.265625 -7.984375 Z M 3.265625 -1.8125 "/></g></g></g><g fill="#003a47" fill-opacity="1"><g transform="translate(213.804521, 271.850373)"><g><path d="M 3.9375 0 C 3.832031 0 3.742188 -0.03125 3.671875 -0.09375 C 3.609375 -0.164062 3.578125 -0.25 3.578125 -0.34375 L 3.578125 -3.4375 L 0.3125 -9.359375 C 0.300781 -9.378906 0.289062 -9.398438 0.28125 -9.421875 C 0.269531 -9.453125 0.265625 -9.476562 0.265625 -9.5 C 0.265625 -9.582031 0.296875 -9.648438 0.359375 -9.703125 C 0.421875 -9.765625 0.488281 -9.796875 0.5625 -9.796875 L 2.0625 -9.796875 C 2.175781 -9.796875 2.269531 -9.765625 2.34375 -9.703125 C 2.425781 -9.640625 2.476562 -9.578125 2.5 -9.515625 L 4.703125 -5.671875 L 6.90625 -9.515625 C 6.925781 -9.578125 6.972656 -9.640625 7.046875 -9.703125 C 7.128906 -9.765625 7.234375 -9.796875 7.359375 -9.796875 L 8.84375 -9.796875 C 8.925781 -9.796875 8.992188 -9.765625 9.046875 -9.703125 C 9.109375 -9.648438 9.140625 -9.582031 9.140625 -9.5 C 9.140625 -9.476562 9.132812 -9.453125 9.125 -9.421875 C 9.125 -9.398438 9.113281 -9.378906 9.09375 -9.359375 L 5.828125 -3.4375 L 5.828125 -0.34375 C 5.828125 -0.25 5.789062 -0.164062 5.71875 -0.09375 C 5.65625 -0.03125 5.570312 0 5.46875 0 Z M 3.9375 0 "/></g></g></g><path fill="#f7931e" d="M 220.617188 172.914062 C 220.457031 172.835938 220.328125 172.722656 220.230469 172.570312 C 219.707031 172.636719 219.183594 172.671875 218.65625 172.671875 C 218.019531 172.671875 217.386719 172.621094 216.757812 172.515625 C 217.484375 174.117188 218.589844 175.390625 220.070312 176.335938 C 221.480469 177.222656 222.347656 177.070312 224.027344 176.734375 C 223.300781 174.816406 222.609375 173.867188 220.617188 172.914062 Z M 220.617188 172.914062 " fill-opacity="1" fill-rule="nonzero"/><path fill="#088ab7" d="M 216.871094 201.664062 L 214.453125 201.664062 C 216.347656 204.734375 218.398438 207.414062 221.410156 208.3125 C 224.261719 209.160156 228.585938 208.546875 230.230469 206.308594 C 231.878906 204.066406 232.03125 199.832031 230.59375 197.398438 C 228.574219 198.789062 226.398438 199.847656 224.054688 200.578125 C 221.714844 201.304688 219.320312 201.664062 216.871094 201.664062 Z M 216.871094 201.664062 " fill-opacity="1" fill-rule="nonzero"/><path fill="#f7931e" d="M 216.328125 170.515625 C 219.65625 171.363281 223.742188 170.21875 226.511719 167.691406 C 223.683594 166.457031 220.746094 165.613281 217.695312 165.164062 C 216.851562 166.847656 216.394531 168.628906 216.328125 170.515625 Z M 216.328125 170.515625 " fill-opacity="1" fill-rule="nonzero"/><path fill="#29abe2" d="M 224.585938 115.734375 C 224.46875 116.085938 224.339844 116.4375 224.203125 116.796875 C 224.128906 116.976562 224.015625 117.117188 223.855469 117.226562 C 223.695312 117.335938 223.519531 117.390625 223.328125 117.390625 C 223.210938 117.390625 223.097656 117.367188 222.988281 117.324219 C 222.75 117.226562 222.578125 117.058594 222.476562 116.824219 C 222.375 116.585938 222.371094 116.347656 222.46875 116.109375 C 225.144531 109.316406 222.996094 104.777344 220.722656 102.167969 C 220.484375 101.898438 220.191406 101.789062 219.835938 101.84375 C 219.5 101.890625 219.261719 102.066406 219.128906 102.378906 C 214.941406 112.039062 200.304688 114.253906 199.691406 114.339844 L 199.644531 114.339844 C 199.621094 114.34375 199.601562 114.34375 199.578125 114.339844 L 158.183594 114.339844 C 157.449219 114.34375 156.714844 114.378906 155.984375 114.453125 C 155.257812 114.523438 154.53125 114.632812 153.8125 114.777344 C 153.09375 114.921875 152.382812 115.097656 151.679688 115.3125 C 150.976562 115.527344 150.285156 115.773438 149.609375 116.054688 C 148.929688 116.335938 148.269531 116.648438 147.621094 116.996094 C 146.976562 117.34375 146.347656 117.71875 145.738281 118.125 C 145.125 118.535156 144.539062 118.972656 143.96875 119.4375 C 143.402344 119.902344 142.859375 120.394531 142.339844 120.914062 C 141.824219 121.433594 141.332031 121.976562 140.867188 122.542969 C 140.398438 123.109375 139.964844 123.699219 139.554688 124.308594 C 139.148438 124.921875 138.769531 125.550781 138.425781 126.195312 C 138.078125 126.84375 137.765625 127.503906 137.484375 128.183594 C 137.203125 128.863281 136.957031 129.550781 136.742188 130.253906 C 136.53125 130.957031 136.351562 131.667969 136.207031 132.386719 C 136.066406 133.105469 135.957031 133.832031 135.882812 134.5625 C 135.8125 135.292969 135.777344 136.023438 135.773438 136.757812 L 135.773438 177.390625 C 135.777344 178.125 135.8125 178.855469 135.886719 179.585938 C 135.957031 180.316406 136.066406 181.039062 136.210938 181.761719 C 136.355469 182.480469 136.53125 183.191406 136.746094 183.890625 C 136.960938 184.59375 137.207031 185.28125 137.488281 185.960938 C 137.769531 186.636719 138.082031 187.300781 138.429688 187.945312 C 138.777344 188.59375 139.152344 189.222656 139.558594 189.832031 C 139.96875 190.441406 140.40625 191.03125 140.871094 191.597656 C 141.335938 192.164062 141.828125 192.707031 142.347656 193.226562 C 142.867188 193.742188 143.410156 194.234375 143.976562 194.699219 C 144.542969 195.167969 145.132812 195.601562 145.742188 196.011719 C 146.351562 196.417969 146.980469 196.792969 147.625 197.140625 C 148.273438 197.488281 148.933594 197.800781 149.613281 198.082031 C 150.289062 198.363281 150.980469 198.609375 151.679688 198.824219 C 152.382812 199.035156 153.09375 199.214844 153.8125 199.359375 C 154.53125 199.503906 155.257812 199.609375 155.988281 199.683594 C 156.71875 199.753906 157.449219 199.792969 158.183594 199.792969 L 171.207031 199.792969 C 167.667969 193.265625 165.28125 186.34375 164.046875 179.023438 C 164.027344 178.78125 164.09375 178.5625 164.242188 178.367188 C 164.390625 178.175781 164.589844 178.058594 164.828125 178.015625 C 165.070312 177.976562 165.292969 178.023438 165.5 178.15625 C 165.703125 178.289062 165.835938 178.472656 165.898438 178.710938 C 167.183594 186.355469 169.753906 193.539062 173.613281 200.261719 C 174.300781 201.46875 175.039062 202.671875 175.808594 203.832031 C 177.71875 206.722656 180.398438 210.246094 184.175781 211.859375 C 187.421875 213.246094 192.03125 212.839844 194.128906 209.765625 C 195.511719 207.738281 195.585938 205.03125 195.453125 202.410156 C 195.429688 201.871094 195.394531 201.335938 195.355469 200.796875 C 194.773438 192.828125 192.882812 185.179688 189.679688 177.859375 C 189.613281 177.742188 189.578125 177.621094 189.566406 177.488281 C 189.554688 177.355469 189.570312 177.226562 189.613281 177.101562 C 189.65625 176.976562 189.722656 176.867188 189.808594 176.769531 C 189.898438 176.671875 190.003906 176.597656 190.125 176.542969 C 190.246094 176.488281 190.375 176.464844 190.507812 176.464844 C 190.640625 176.464844 190.765625 176.492188 190.886719 176.546875 C 191.007812 176.597656 191.113281 176.675781 191.199219 176.773438 C 191.289062 176.871094 191.355469 176.984375 191.398438 177.109375 C 194.566406 184.351562 196.484375 191.914062 197.152344 199.792969 L 216.871094 199.792969 C 217.601562 199.792969 218.335938 199.753906 219.066406 199.683594 C 219.792969 199.609375 220.519531 199.503906 221.238281 199.359375 C 221.957031 199.214844 222.667969 199.035156 223.371094 198.824219 C 224.074219 198.609375 224.761719 198.363281 225.441406 198.082031 C 226.117188 197.800781 226.78125 197.488281 227.425781 197.140625 C 228.074219 196.792969 228.703125 196.417969 229.3125 196.011719 C 229.921875 195.601562 230.507812 195.167969 231.078125 194.699219 C 231.644531 194.234375 232.1875 193.742188 232.707031 193.226562 C 233.222656 192.707031 233.714844 192.164062 234.179688 191.597656 C 234.648438 191.03125 235.082031 190.441406 235.492188 189.832031 C 235.898438 189.222656 236.277344 188.59375 236.621094 187.945312 C 236.96875 187.300781 237.28125 186.636719 237.5625 185.960938 C 237.84375 185.28125 238.09375 184.59375 238.304688 183.890625 C 238.519531 183.191406 238.699219 182.480469 238.839844 181.761719 C 238.984375 181.039062 239.09375 180.316406 239.167969 179.585938 C 239.238281 178.855469 239.277344 178.125 239.277344 177.390625 L 239.277344 136.757812 C 239.277344 126.902344 233.527344 118.707031 224.585938 115.734375 Z M 228.820312 168.03125 C 227.171875 169.902344 225.164062 171.222656 222.792969 171.992188 C 224.730469 173.296875 225.402344 174.886719 226.171875 177.144531 C 226.214844 177.273438 226.230469 177.40625 226.214844 177.539062 C 226.203125 177.675781 226.160156 177.800781 226.089844 177.917969 C 226.023438 178.035156 225.933594 178.132812 225.820312 178.210938 C 225.710938 178.292969 225.585938 178.34375 225.453125 178.367188 C 225.125 178.429688 224.820312 178.488281 224.527344 178.546875 C 223.738281 178.738281 222.9375 178.84375 222.125 178.875 C 221.007812 178.867188 219.988281 178.546875 219.066406 177.921875 C 217.941406 177.199219 216.980469 176.300781 216.1875 175.226562 C 215.394531 174.152344 214.820312 172.96875 214.46875 171.679688 C 214.433594 171.535156 214.433594 171.386719 214.46875 171.242188 C 214.46875 171.242188 214.46875 171.242188 214.46875 171.226562 C 214.421875 168.542969 215.058594 166.035156 216.382812 163.699219 C 216.476562 163.53125 216.609375 163.402344 216.78125 163.320312 C 216.953125 163.234375 217.132812 163.203125 217.324219 163.226562 C 221.246094 163.730469 224.984375 164.847656 228.539062 166.578125 C 228.667969 166.644531 228.773438 166.734375 228.863281 166.851562 C 228.949219 166.964844 229.007812 167.09375 229.035156 167.238281 C 229.0625 167.378906 229.058594 167.519531 229.023438 167.660156 C 228.984375 167.800781 228.917969 167.925781 228.824219 168.035156 Z M 228.820312 168.03125 " fill-opacity="1" fill-rule="nonzero"/><path fill="#29abe2" d="M 228.519531 166.578125 C 224.96875 164.847656 221.230469 163.726562 217.308594 163.222656 C 217.117188 163.199219 216.9375 163.230469 216.765625 163.316406 C 216.59375 163.402344 216.460938 163.527344 216.367188 163.695312 C 215.042969 166.03125 214.40625 168.539062 214.449219 171.222656 C 214.449219 171.222656 214.449219 171.222656 214.449219 171.238281 C 214.414062 171.386719 214.414062 171.53125 214.449219 171.679688 C 214.804688 172.96875 215.382812 174.15625 216.179688 175.234375 C 216.972656 176.3125 217.9375 177.210938 219.066406 177.933594 C 219.988281 178.558594 221.007812 178.878906 222.125 178.886719 C 222.933594 178.855469 223.730469 178.746094 224.515625 178.558594 C 224.808594 178.5 225.113281 178.441406 225.441406 178.378906 C 225.574219 178.355469 225.699219 178.304688 225.808594 178.226562 C 225.921875 178.148438 226.011719 178.046875 226.078125 177.929688 C 226.148438 177.8125 226.191406 177.6875 226.203125 177.550781 C 226.21875 177.417969 226.203125 177.285156 226.160156 177.15625 C 225.390625 174.898438 224.71875 173.308594 222.78125 172.003906 C 225.15625 171.230469 227.171875 169.90625 228.820312 168.03125 C 228.914062 167.921875 228.980469 167.796875 229.015625 167.65625 C 229.054688 167.515625 229.058594 167.375 229.03125 167.234375 C 229.003906 167.09375 228.945312 166.964844 228.859375 166.847656 C 228.769531 166.734375 228.660156 166.644531 228.53125 166.578125 Z M 224.027344 176.734375 C 222.347656 177.070312 221.472656 177.222656 220.070312 176.335938 C 218.589844 175.390625 217.484375 174.117188 216.757812 172.519531 C 217.386719 172.625 218.019531 172.679688 218.65625 172.679688 C 219.183594 172.675781 219.707031 172.640625 220.230469 172.574219 C 220.328125 172.726562 220.457031 172.84375 220.617188 172.921875 C 222.609375 173.867188 223.300781 174.816406 224.027344 176.734375 Z M 216.328125 170.515625 C 216.394531 168.636719 216.851562 166.855469 217.695312 165.175781 C 220.746094 165.625 223.683594 166.46875 226.511719 167.703125 C 223.742188 170.21875 219.65625 171.363281 216.328125 170.515625 Z M 216.328125 170.515625 " fill-opacity="1" fill-rule="nonzero"/><path fill="#088ab7" d="M 155.804688 114.476562 C 155.125 114.550781 154.449219 114.65625 153.78125 114.789062 C 153.109375 114.925781 152.445312 115.089844 151.792969 115.285156 C 151.136719 115.480469 150.492188 115.707031 149.855469 115.960938 C 149.222656 116.21875 148.601562 116.5 147.992188 116.8125 C 147.382812 117.121094 146.789062 117.460938 146.210938 117.828125 C 145.632812 118.191406 145.074219 118.585938 144.53125 119 C 143.988281 119.417969 143.46875 119.859375 142.964844 120.324219 C 142.464844 120.789062 141.984375 121.277344 141.527344 121.785156 C 141.070312 122.292969 140.636719 122.820312 140.226562 123.371094 C 139.820312 123.917969 139.433594 124.484375 139.078125 125.066406 C 138.722656 125.648438 138.390625 126.25 138.089844 126.863281 C 137.785156 127.476562 137.511719 128.101562 137.265625 128.738281 C 137.023438 129.378906 136.804688 130.027344 136.621094 130.683594 C 136.433594 131.34375 136.277344 132.007812 136.152344 132.679688 C 136.027344 133.351562 135.933594 134.027344 135.871094 134.710938 C 135.808594 135.390625 135.777344 136.074219 135.773438 136.757812 L 135.773438 177.390625 C 135.777344 178.125 135.8125 178.855469 135.886719 179.585938 C 135.957031 180.316406 136.066406 181.039062 136.210938 181.761719 C 136.355469 182.480469 136.53125 183.191406 136.746094 183.890625 C 136.960938 184.59375 137.207031 185.28125 137.488281 185.960938 C 137.769531 186.636719 138.082031 187.300781 138.429688 187.945312 C 138.777344 188.59375 139.152344 189.222656 139.558594 189.832031 C 139.96875 190.441406 140.40625 191.03125 140.871094 191.597656 C 141.335938 192.164062 141.828125 192.707031 142.347656 193.226562 C 142.867188 193.742188 143.410156 194.234375 143.976562 194.699219 C 144.542969 195.167969 145.132812 195.601562 145.742188 196.011719 C 146.351562 196.417969 146.980469 196.792969 147.625 197.140625 C 148.273438 197.488281 148.933594 197.800781 149.613281 198.082031 C 150.289062 198.363281 150.980469 198.609375 151.679688 198.824219 C 152.382812 199.035156 153.09375 199.214844 153.8125 199.359375 C 154.53125 199.503906 155.257812 199.609375 155.988281 199.683594 C 156.71875 199.753906 157.449219 199.792969 158.183594 199.792969 L 171.207031 199.792969 C 167.667969 193.265625 165.28125 186.34375 164.046875 179.023438 C 143.804688 154.019531 155.792969 114.527344 155.804688 114.476562 Z M 155.804688 114.476562 " fill-opacity="1" fill-rule="nonzero"/><path fill="#088ab7" d="M 232.507812 193.40625 C 232.355469 193.441406 214.863281 197.269531 196.554688 194.84375 C 196.808594 196.488281 197.011719 198.136719 197.152344 199.785156 L 216.871094 199.785156 C 218.316406 199.785156 219.75 199.644531 221.171875 199.367188 C 222.59375 199.089844 223.976562 198.675781 225.316406 198.128906 C 226.65625 197.585938 227.933594 196.914062 229.140625 196.117188 C 230.351562 195.324219 231.476562 194.421875 232.507812 193.40625 Z M 232.507812 193.40625 " fill-opacity="1" fill-rule="nonzero"/><path fill="#088ab7" d="M 195.453125 202.402344 C 195.429688 201.863281 195.394531 201.328125 195.355469 200.789062 C 195.226562 199.007812 195.023438 197.238281 194.757812 195.480469 C 194.785156 196.804688 194.53125 198.074219 193.992188 199.289062 C 193.453125 200.5 192.679688 201.542969 191.675781 202.410156 C 185.941406 207.234375 179.996094 202.503906 176.195312 197.878906 C 171.929688 192.675781 168.617188 186.921875 166.253906 180.621094 C 167.636719 187.566406 170.089844 194.109375 173.613281 200.253906 C 174.300781 201.457031 175.039062 202.660156 175.808594 203.824219 C 177.71875 206.710938 180.398438 210.238281 184.175781 211.851562 C 187.421875 213.238281 192.03125 212.828125 194.128906 209.753906 C 195.511719 207.734375 195.585938 205.03125 195.453125 202.402344 Z M 195.453125 202.402344 " fill-opacity="1" fill-rule="nonzero"/><path fill="#83dfff" d="M 239.277344 136.757812 C 239.277344 126.910156 233.527344 118.710938 224.59375 115.738281 C 224.476562 116.089844 224.351562 116.441406 224.210938 116.800781 C 224.070312 117.152344 223.8125 117.347656 223.433594 117.382812 C 231.46875 121.542969 237.316406 129.523438 239.277344 138.320312 Z M 239.277344 136.757812 " fill-opacity="1" fill-rule="nonzero"/><path fill="#83dfff" d="M 220.722656 102.171875 C 220.484375 101.898438 220.191406 101.789062 219.835938 101.84375 C 219.5 101.890625 219.261719 102.070312 219.128906 102.378906 C 218.53125 103.738281 217.738281 104.972656 216.753906 106.082031 C 217.144531 105.914062 217.550781 105.839844 217.972656 105.855469 C 218.398438 105.875 218.796875 105.984375 219.171875 106.183594 C 220.285156 106.800781 220.945312 108 221.40625 109.1875 C 222.136719 111.070312 222.507812 113.085938 222.816406 115.09375 C 224.921875 108.859375 222.882812 104.644531 220.722656 102.171875 Z M 220.722656 102.171875 " fill-opacity="1" fill-rule="nonzero"/><g clip-path="url(#b58c6d50c8)"><path fill="#002b35" d="M 225.554688 113.683594 C 226.949219 107.230469 224.3125 102.859375 222.417969 100.691406 C 222.054688 100.269531 221.613281 99.96875 221.09375 99.777344 C 220.570312 99.585938 220.039062 99.535156 219.492188 99.621094 C 218.953125 99.703125 218.472656 99.910156 218.042969 100.238281 C 217.613281 100.570312 217.289062 100.984375 217.074219 101.484375 C 213.53125 109.648438 200.605469 111.914062 199.46875 112.101562 L 158.183594 112.101562 C 157.375 112.101562 156.570312 112.144531 155.765625 112.222656 C 154.964844 112.300781 154.164062 112.421875 153.375 112.578125 C 152.582031 112.738281 151.800781 112.933594 151.027344 113.167969 C 150.253906 113.402344 149.496094 113.675781 148.75 113.984375 C 148.003906 114.292969 147.277344 114.640625 146.566406 115.019531 C 145.851562 115.402344 145.160156 115.816406 144.488281 116.265625 C 143.820312 116.714844 143.171875 117.195312 142.546875 117.707031 C 141.921875 118.21875 141.324219 118.761719 140.753906 119.332031 C 140.183594 119.902344 139.644531 120.5 139.128906 121.121094 C 138.617188 121.746094 138.136719 122.394531 137.6875 123.066406 C 137.242188 123.738281 136.824219 124.429688 136.445312 125.140625 C 136.0625 125.851562 135.71875 126.582031 135.410156 127.324219 C 135.101562 128.070312 134.828125 128.832031 134.59375 129.601562 C 134.359375 130.375 134.160156 131.15625 134.003906 131.949219 C 133.847656 132.742188 133.726562 133.539062 133.648438 134.339844 C 133.566406 135.144531 133.527344 135.949219 133.527344 136.757812 L 133.527344 177.390625 C 133.527344 178.199219 133.566406 179.003906 133.648438 179.804688 C 133.726562 180.609375 133.847656 181.40625 134.003906 182.199219 C 134.164062 182.988281 134.359375 183.769531 134.59375 184.542969 C 134.832031 185.316406 135.101562 186.074219 135.414062 186.820312 C 135.722656 187.566406 136.066406 188.292969 136.449219 189.003906 C 136.828125 189.714844 137.242188 190.40625 137.691406 191.078125 C 138.140625 191.75 138.621094 192.398438 139.132812 193.019531 C 139.644531 193.644531 140.1875 194.242188 140.757812 194.8125 C 141.328125 195.382812 141.925781 195.921875 142.550781 196.433594 C 143.175781 196.949219 143.820312 197.425781 144.492188 197.875 C 145.164062 198.324219 145.855469 198.738281 146.566406 199.121094 C 147.277344 199.5 148.007812 199.84375 148.753906 200.15625 C 149.5 200.464844 150.257812 200.734375 151.03125 200.96875 C 151.800781 201.207031 152.582031 201.402344 153.375 201.558594 C 154.167969 201.71875 154.964844 201.835938 155.765625 201.917969 C 156.570312 201.996094 157.375 202.035156 158.183594 202.039062 L 172.042969 202.039062 C 172.640625 203.0625 173.277344 204.078125 173.921875 205.070312 C 176.007812 208.222656 178.957031 212.078125 183.285156 213.925781 C 184.796875 214.558594 186.371094 214.871094 188.011719 214.867188 C 191.046875 214.867188 194.128906 213.730469 195.980469 211.023438 C 197.738281 208.449219 197.84375 205.304688 197.695312 202.296875 L 197.679688 202.03125 L 212.035156 202.03125 C 214.230469 205.683594 216.738281 209.265625 220.757812 210.464844 C 221.851562 210.78125 222.972656 210.9375 224.113281 210.933594 C 227.140625 210.933594 230.371094 209.902344 232.03125 207.640625 C 234.195312 204.695312 234.410156 199.578125 232.578125 196.359375 C 233.976562 195.203125 235.234375 193.910156 236.347656 192.480469 C 237.457031 191.046875 238.402344 189.511719 239.171875 187.871094 C 239.945312 186.230469 240.53125 184.527344 240.925781 182.757812 C 241.324219 180.988281 241.519531 179.195312 241.519531 177.382812 L 241.519531 136.757812 C 241.527344 126.003906 235.28125 117.03125 225.554688 113.683594 Z M 229.929688 206.085938 C 228.421875 208.136719 224.242188 208.765625 221.515625 207.953125 C 218.789062 207.140625 216.886719 204.800781 215.128906 202.039062 L 216.871094 202.039062 C 219.289062 202.039062 221.65625 201.691406 223.972656 200.992188 C 226.289062 200.292969 228.453125 199.273438 230.46875 197.929688 C 231.601562 200.285156 231.410156 204.085938 229.929688 206.085938 Z M 216.871094 199.414062 L 197.496094 199.414062 C 196.796875 191.613281 194.878906 184.128906 191.738281 176.953125 C 191.675781 176.789062 191.578125 176.644531 191.453125 176.515625 C 191.328125 176.390625 191.183594 176.292969 191.019531 176.226562 C 190.855469 176.160156 190.683594 176.128906 190.507812 176.128906 C 190.328125 176.132812 190.160156 176.167969 189.996094 176.238281 C 189.832031 176.3125 189.691406 176.410156 189.566406 176.539062 C 189.445312 176.667969 189.355469 176.816406 189.292969 176.984375 C 189.230469 177.148438 189.203125 177.320312 189.210938 177.5 C 189.21875 177.675781 189.257812 177.84375 189.335938 178.003906 C 192.523438 185.289062 194.40625 192.898438 194.980469 200.828125 C 195.023438 201.363281 195.054688 201.894531 195.082031 202.433594 C 195.207031 204.988281 195.140625 207.621094 193.824219 209.554688 C 191.835938 212.472656 187.433594 212.847656 184.324219 211.515625 C 180.636719 209.929688 177.996094 206.46875 176.113281 203.625 C 175.347656 202.46875 174.617188 201.269531 173.929688 200.074219 C 170.097656 193.386719 167.542969 186.242188 166.265625 178.636719 C 166.242188 178.460938 166.1875 178.296875 166.09375 178.144531 C 166.003906 177.992188 165.886719 177.863281 165.746094 177.757812 C 165.601562 177.652344 165.441406 177.578125 165.269531 177.539062 C 165.097656 177.496094 164.921875 177.492188 164.75 177.519531 C 164.574219 177.550781 164.410156 177.613281 164.261719 177.707031 C 164.109375 177.804688 163.984375 177.925781 163.886719 178.070312 C 163.785156 178.21875 163.714844 178.378906 163.679688 178.550781 C 163.644531 178.726562 163.644531 178.898438 163.679688 179.074219 C 164.882812 186.222656 167.183594 193 170.582031 199.40625 L 158.183594 199.40625 C 157.460938 199.40625 156.742188 199.371094 156.023438 199.296875 C 155.304688 199.226562 154.59375 199.121094 153.886719 198.980469 C 153.179688 198.839844 152.480469 198.664062 151.789062 198.453125 C 151.101562 198.242188 150.421875 198 149.753906 197.722656 C 149.089844 197.449219 148.4375 197.140625 147.800781 196.800781 C 147.167969 196.457031 146.546875 196.089844 145.949219 195.6875 C 145.347656 195.285156 144.769531 194.859375 144.210938 194.398438 C 143.65625 193.941406 143.121094 193.457031 142.609375 192.949219 C 142.101562 192.4375 141.617188 191.90625 141.160156 191.347656 C 140.703125 190.789062 140.273438 190.210938 139.871094 189.613281 C 139.46875 189.011719 139.101562 188.394531 138.757812 187.757812 C 138.417969 187.121094 138.109375 186.472656 137.835938 185.804688 C 137.558594 185.140625 137.316406 184.460938 137.105469 183.769531 C 136.894531 183.082031 136.71875 182.382812 136.578125 181.675781 C 136.4375 180.96875 136.328125 180.253906 136.257812 179.539062 C 136.1875 178.820312 136.148438 178.101562 136.148438 177.378906 L 136.148438 136.757812 C 136.148438 136.035156 136.1875 135.316406 136.257812 134.597656 C 136.328125 133.882812 136.4375 133.167969 136.578125 132.460938 C 136.71875 131.753906 136.894531 131.054688 137.105469 130.367188 C 137.316406 129.675781 137.558594 128.996094 137.835938 128.332031 C 138.109375 127.664062 138.417969 127.015625 138.757812 126.378906 C 139.101562 125.742188 139.46875 125.125 139.871094 124.523438 C 140.273438 123.925781 140.703125 123.347656 141.160156 122.789062 C 141.617188 122.230469 142.101562 121.699219 142.609375 121.1875 C 143.121094 120.679688 143.65625 120.195312 144.210938 119.738281 C 144.769531 119.277344 145.347656 118.851562 145.949219 118.449219 C 146.546875 118.046875 147.167969 117.679688 147.800781 117.335938 C 148.4375 116.996094 149.089844 116.6875 149.753906 116.414062 C 150.421875 116.136719 151.101562 115.894531 151.789062 115.683594 C 152.480469 115.472656 153.179688 115.296875 153.886719 115.15625 C 154.59375 115.015625 155.304688 114.910156 156.023438 114.839844 C 156.742188 114.765625 157.460938 114.730469 158.183594 114.730469 L 199.566406 114.730469 C 199.601562 114.730469 199.632812 114.730469 199.664062 114.730469 C 199.699219 114.730469 199.726562 114.730469 199.757812 114.730469 C 200.382812 114.640625 215.210938 112.394531 219.480469 102.546875 C 219.558594 102.363281 219.695312 102.257812 219.894531 102.234375 C 220.113281 102.199219 220.292969 102.265625 220.4375 102.433594 C 222.644531 104.964844 224.726562 109.371094 222.117188 115.992188 C 222.054688 116.152344 222.023438 116.320312 222.027344 116.496094 C 222.03125 116.667969 222.066406 116.835938 222.136719 116.996094 C 222.203125 117.152344 222.300781 117.292969 222.425781 117.414062 C 222.550781 117.535156 222.695312 117.628906 222.859375 117.691406 C 223.007812 117.753906 223.164062 117.78125 223.328125 117.785156 C 223.597656 117.785156 223.84375 117.707031 224.066406 117.558594 C 224.289062 117.40625 224.449219 117.203125 224.550781 116.953125 C 224.644531 116.71875 224.738281 116.464844 224.824219 116.230469 C 232.6875 118.992188 237.957031 125.933594 238.777344 134.433594 C 238.015625 133.84375 237.179688 133.386719 236.273438 133.054688 C 235.214844 132.683594 234.121094 132.503906 232.996094 132.519531 C 231.871094 132.535156 230.785156 132.742188 229.734375 133.144531 C 229.582031 133.214844 229.449219 133.3125 229.335938 133.433594 C 229.21875 133.558594 229.132812 133.695312 229.070312 133.851562 C 229.007812 134.007812 228.976562 134.167969 228.976562 134.335938 C 228.976562 134.503906 229.007812 134.664062 229.070312 134.820312 C 229.132812 134.976562 229.222656 135.113281 229.335938 135.234375 C 229.449219 135.355469 229.585938 135.453125 229.734375 135.523438 C 229.886719 135.59375 230.046875 135.636719 230.214844 135.644531 C 230.378906 135.65625 230.542969 135.632812 230.703125 135.582031 C 231.070312 135.4375 231.445312 135.328125 231.832031 135.25 C 232.21875 135.171875 232.609375 135.132812 233.003906 135.121094 C 233.398438 135.113281 233.789062 135.140625 234.179688 135.203125 C 234.570312 135.261719 234.953125 135.359375 235.324219 135.488281 C 235.695312 135.613281 236.054688 135.773438 236.398438 135.964844 C 236.746094 136.15625 237.070312 136.378906 237.375 136.625 C 237.683594 136.875 237.964844 137.148438 238.222656 137.449219 C 238.480469 137.746094 238.707031 138.066406 238.910156 138.402344 L 238.910156 177.386719 C 238.910156 178.109375 238.871094 178.828125 238.800781 179.546875 C 238.730469 180.261719 238.625 180.976562 238.480469 181.683594 C 238.339844 182.390625 238.164062 183.089844 237.953125 183.78125 C 237.746094 184.46875 237.5 185.148438 237.226562 185.816406 C 236.949219 186.480469 236.640625 187.132812 236.300781 187.769531 C 235.957031 188.402344 235.585938 189.023438 235.1875 189.621094 C 234.785156 190.222656 234.355469 190.800781 233.898438 191.359375 C 233.441406 191.914062 232.957031 192.449219 232.445312 192.957031 C 231.933594 193.46875 231.402344 193.953125 230.84375 194.410156 C 230.285156 194.867188 229.707031 195.296875 229.105469 195.699219 C 228.507812 196.097656 227.890625 196.46875 227.253906 196.808594 C 226.617188 197.148438 225.964844 197.457031 225.300781 197.734375 C 224.632812 198.011719 223.953125 198.253906 223.261719 198.460938 C 222.574219 198.671875 221.875 198.847656 221.167969 198.988281 C 220.460938 199.128906 219.746094 199.234375 219.027344 199.304688 C 218.3125 199.378906 217.589844 199.414062 216.871094 199.414062 Z M 216.871094 199.414062 " fill-opacity="1" fill-rule="nonzero"/></g><path fill="#002b35" d="M 212.027344 153.632812 C 212.027344 154.234375 211.96875 154.828125 211.851562 155.414062 C 211.734375 156 211.5625 156.570312 211.332031 157.125 C 211.105469 157.675781 210.824219 158.203125 210.488281 158.699219 C 210.15625 159.199219 209.78125 159.660156 209.355469 160.082031 C 208.933594 160.507812 208.472656 160.882812 207.972656 161.21875 C 207.476562 161.550781 206.949219 161.832031 206.398438 162.058594 C 205.84375 162.289062 205.273438 162.460938 204.6875 162.578125 C 204.097656 162.695312 203.507812 162.753906 202.90625 162.753906 C 202.308594 162.753906 201.714844 162.695312 201.128906 162.578125 C 200.539062 162.460938 199.96875 162.289062 199.417969 162.058594 C 198.863281 161.832031 198.339844 161.550781 197.839844 161.21875 C 197.34375 160.882812 196.882812 160.507812 196.457031 160.082031 C 196.035156 159.660156 195.65625 159.199219 195.324219 158.699219 C 194.992188 158.203125 194.710938 157.675781 194.480469 157.125 C 194.253906 156.570312 194.078125 156 193.960938 155.414062 C 193.84375 154.828125 193.789062 154.234375 193.789062 153.632812 C 193.789062 153.035156 193.84375 152.441406 193.960938 151.855469 C 194.078125 151.269531 194.253906 150.699219 194.480469 150.144531 C 194.710938 149.589844 194.992188 149.066406 195.324219 148.566406 C 195.65625 148.070312 196.035156 147.609375 196.457031 147.1875 C 196.882812 146.761719 197.34375 146.382812 197.839844 146.050781 C 198.339844 145.71875 198.863281 145.4375 199.417969 145.207031 C 199.96875 144.980469 200.539062 144.808594 201.128906 144.691406 C 201.714844 144.574219 202.308594 144.515625 202.90625 144.515625 C 203.507812 144.515625 204.097656 144.574219 204.6875 144.691406 C 205.273438 144.808594 205.84375 144.980469 206.398438 145.207031 C 206.949219 145.4375 207.476562 145.71875 207.972656 146.050781 C 208.472656 146.382812 208.933594 146.761719 209.355469 147.1875 C 209.78125 147.609375 210.15625 148.070312 210.488281 148.566406 C 210.824219 149.066406 211.105469 149.589844 211.332031 150.144531 C 211.5625 150.699219 211.734375 151.269531 211.851562 151.855469 C 211.96875 152.441406 212.027344 153.035156 212.027344 153.632812 Z M 212.027344 153.632812 " fill-opacity="1" fill-rule="nonzero"/><path fill="#002b35" d="M 237.996094 153.632812 C 237.996094 154.234375 237.9375 154.828125 237.820312 155.414062 C 237.703125 156 237.53125 156.570312 237.300781 157.125 C 237.074219 157.675781 236.792969 158.203125 236.460938 158.699219 C 236.125 159.199219 235.75 159.660156 235.324219 160.082031 C 234.902344 160.507812 234.441406 160.882812 233.941406 161.21875 C 233.445312 161.550781 232.917969 161.832031 232.367188 162.058594 C 231.8125 162.289062 231.242188 162.460938 230.65625 162.578125 C 230.070312 162.695312 229.476562 162.753906 228.875 162.753906 C 228.277344 162.753906 227.683594 162.695312 227.097656 162.578125 C 226.511719 162.460938 225.941406 162.289062 225.386719 162.058594 C 224.832031 161.832031 224.308594 161.550781 223.808594 161.21875 C 223.3125 160.882812 222.851562 160.507812 222.425781 160.082031 C 222.003906 159.660156 221.625 159.199219 221.292969 158.699219 C 220.960938 158.203125 220.679688 157.675781 220.449219 157.125 C 220.222656 156.570312 220.046875 156 219.933594 155.414062 C 219.816406 154.828125 219.757812 154.234375 219.757812 153.632812 C 219.757812 153.035156 219.816406 152.441406 219.933594 151.855469 C 220.046875 151.269531 220.222656 150.699219 220.449219 150.144531 C 220.679688 149.589844 220.960938 149.066406 221.292969 148.566406 C 221.625 148.070312 222.003906 147.609375 222.425781 147.1875 C 222.851562 146.761719 223.3125 146.382812 223.808594 146.050781 C 224.308594 145.71875 224.832031 145.4375 225.386719 145.207031 C 225.941406 144.980469 226.511719 144.808594 227.097656 144.691406 C 227.683594 144.574219 228.277344 144.515625 228.875 144.515625 C 229.476562 144.515625 230.070312 144.574219 230.65625 144.691406 C 231.242188 144.808594 231.8125 144.980469 232.367188 145.207031 C 232.917969 145.4375 233.445312 145.71875 233.941406 146.050781 C 234.441406 146.382812 234.902344 146.761719 235.324219 147.1875 C 235.75 147.609375 236.125 148.070312 236.460938 148.566406 C 236.792969 149.066406 237.074219 149.589844 237.300781 150.144531 C 237.53125 150.699219 237.703125 151.269531 237.820312 151.855469 C 237.9375 152.441406 237.996094 153.035156 237.996094 153.632812 Z M 237.996094 153.632812 " fill-opacity="1" fill-rule="nonzero"/><path fill="#002b35" d="M 228.6875 166.242188 C 225.097656 164.492188 221.320312 163.363281 217.359375 162.851562 C 217.09375 162.816406 216.839844 162.855469 216.597656 162.976562 C 216.355469 163.097656 216.171875 163.273438 216.039062 163.507812 C 214.683594 165.894531 214.03125 168.460938 214.074219 171.207031 C 214.039062 171.398438 214.046875 171.589844 214.09375 171.78125 C 214.464844 173.113281 215.058594 174.335938 215.882812 175.453125 C 216.703125 176.566406 217.699219 177.492188 218.867188 178.238281 C 219.851562 178.90625 220.941406 179.242188 222.128906 179.246094 C 222.960938 179.21875 223.777344 179.109375 224.585938 178.914062 C 224.875 178.855469 225.179688 178.796875 225.503906 178.738281 C 225.691406 178.703125 225.863281 178.628906 226.019531 178.519531 C 226.179688 178.410156 226.304688 178.273438 226.402344 178.109375 C 226.5 177.945312 226.554688 177.769531 226.574219 177.578125 C 226.59375 177.386719 226.574219 177.203125 226.511719 177.023438 C 225.804688 174.921875 225.160156 173.378906 223.574219 172.105469 C 225.726562 171.285156 227.566406 170.011719 229.09375 168.285156 C 229.226562 168.132812 229.320312 167.957031 229.371094 167.761719 C 229.421875 167.566406 229.429688 167.367188 229.390625 167.167969 C 229.351562 166.972656 229.269531 166.792969 229.144531 166.628906 C 229.023438 166.46875 228.871094 166.34375 228.6875 166.253906 Z M 220.453125 173.253906 C 222.191406 174.085938 222.867188 174.878906 223.511719 176.453125 C 222.171875 176.710938 221.425781 176.75 220.265625 176.015625 C 219.058594 175.246094 218.105469 174.230469 217.410156 172.976562 C 217.820312 173.023438 218.230469 173.046875 218.644531 173.046875 C 219.117188 173.046875 219.589844 173.019531 220.058594 172.96875 C 220.171875 173.089844 220.304688 173.183594 220.457031 173.253906 Z M 216.714844 170.222656 C 216.8125 168.601562 217.210938 167.054688 217.90625 165.589844 C 220.632812 166.015625 223.269531 166.757812 225.816406 167.816406 C 223.242188 169.90625 219.699219 170.875 216.71875 170.222656 Z M 216.714844 170.222656 " fill-opacity="1" fill-rule="nonzero"/><path fill="#002b35" d="M 199.839844 135.582031 C 200 135.632812 200.164062 135.652344 200.332031 135.640625 C 200.5 135.628906 200.660156 135.589844 200.808594 135.515625 C 200.960938 135.441406 201.09375 135.34375 201.207031 135.222656 C 201.320312 135.097656 201.410156 134.960938 201.46875 134.800781 C 201.527344 134.644531 201.558594 134.484375 201.554688 134.316406 C 201.554688 134.148438 201.523438 133.988281 201.457031 133.832031 C 201.394531 133.675781 201.304688 133.539062 201.1875 133.417969 C 201.070312 133.296875 200.933594 133.203125 200.78125 133.132812 C 200.261719 132.933594 199.726562 132.777344 199.179688 132.671875 C 198.632812 132.566406 198.082031 132.507812 197.523438 132.5 C 196.964844 132.492188 196.410156 132.535156 195.859375 132.628906 C 195.308594 132.71875 194.773438 132.859375 194.246094 133.046875 C 193.722656 133.234375 193.21875 133.46875 192.734375 133.746094 C 192.25 134.027344 191.796875 134.34375 191.371094 134.703125 C 190.945312 135.066406 190.550781 135.460938 190.195312 135.890625 C 189.839844 136.320312 189.527344 136.777344 189.253906 137.261719 C 189.164062 137.414062 189.109375 137.578125 189.085938 137.753906 C 189.0625 137.925781 189.070312 138.097656 189.117188 138.269531 C 189.164062 138.4375 189.242188 138.59375 189.347656 138.734375 C 189.457031 138.871094 189.585938 138.984375 189.742188 139.070312 C 189.894531 139.15625 190.058594 139.210938 190.234375 139.230469 C 190.40625 139.25 190.578125 139.238281 190.75 139.1875 C 190.917969 139.140625 191.070312 139.0625 191.207031 138.949219 C 191.347656 138.839844 191.457031 138.707031 191.539062 138.550781 C 191.738281 138.203125 191.964844 137.871094 192.21875 137.5625 C 192.476562 137.253906 192.757812 136.96875 193.0625 136.707031 C 193.371094 136.449219 193.699219 136.21875 194.046875 136.019531 C 194.394531 135.820312 194.757812 135.648438 195.136719 135.515625 C 195.511719 135.378906 195.902344 135.277344 196.296875 135.214844 C 196.691406 135.148438 197.09375 135.117188 197.492188 135.121094 C 197.894531 135.128906 198.292969 135.167969 198.6875 135.246094 C 199.082031 135.324219 199.46875 135.433594 199.839844 135.582031 Z M 199.839844 135.582031 " fill-opacity="1" fill-rule="nonzero"/><path fill="#ffffff" d="M 202.867188 152.722656 C 202.867188 153.1875 202.777344 153.632812 202.601562 154.0625 C 202.421875 154.492188 202.167969 154.871094 201.839844 155.199219 C 201.511719 155.527344 201.132812 155.78125 200.703125 155.957031 C 200.273438 156.136719 199.828125 156.226562 199.363281 156.226562 C 198.898438 156.226562 198.453125 156.136719 198.023438 155.957031 C 197.59375 155.78125 197.214844 155.527344 196.886719 155.199219 C 196.558594 154.871094 196.304688 154.492188 196.125 154.0625 C 195.949219 153.632812 195.859375 153.1875 195.859375 152.722656 C 195.859375 152.257812 195.949219 151.808594 196.125 151.378906 C 196.304688 150.953125 196.558594 150.574219 196.886719 150.242188 C 197.214844 149.914062 197.59375 149.664062 198.023438 149.484375 C 198.453125 149.308594 198.898438 149.21875 199.363281 149.21875 C 199.828125 149.21875 200.273438 149.308594 200.703125 149.484375 C 201.132812 149.664062 201.511719 149.914062 201.839844 150.242188 C 202.167969 150.574219 202.421875 150.953125 202.601562 151.378906 C 202.777344 151.808594 202.867188 152.257812 202.867188 152.722656 Z M 202.867188 152.722656 " fill-opacity="1" fill-rule="nonzero"/><path fill="#ffffff" d="M 228.804688 152.722656 C 228.804688 153.1875 228.71875 153.632812 228.539062 154.0625 C 228.363281 154.492188 228.109375 154.871094 227.78125 155.199219 C 227.453125 155.527344 227.074219 155.78125 226.644531 155.957031 C 226.214844 156.136719 225.765625 156.226562 225.300781 156.226562 C 224.835938 156.226562 224.390625 156.136719 223.960938 155.957031 C 223.53125 155.78125 223.152344 155.527344 222.824219 155.199219 C 222.496094 154.871094 222.242188 154.492188 222.066406 154.0625 C 221.886719 153.632812 221.800781 153.1875 221.800781 152.722656 C 221.800781 152.257812 221.886719 151.808594 222.066406 151.378906 C 222.242188 150.953125 222.496094 150.574219 222.824219 150.242188 C 223.152344 149.914062 223.53125 149.664062 223.960938 149.484375 C 224.390625 149.308594 224.835938 149.21875 225.300781 149.21875 C 225.765625 149.21875 226.214844 149.308594 226.644531 149.484375 C 227.074219 149.664062 227.453125 149.914062 227.78125 150.242188 C 228.109375 150.574219 228.363281 150.953125 228.539062 151.378906 C 228.71875 151.808594 228.804688 152.257812 228.804688 152.722656 Z M 228.804688 152.722656 " fill-opacity="1" fill-rule="nonzero"/></svg>