<?xml version="1.0" encoding="UTF-8"?>
<svg xmlns="http://www.w3.org/2000/svg" xmlns:xlink="http://www.w3.org/1999/xlink" width="4px" height="24px" viewBox="0 0 4 25" version="1.1">
<defs>
<clipPath id="clip1">
  <path d="M 1.425781 11.558594 L 2.578125 11.558594 L 2.578125 12.792969 L 1.425781 12.792969 Z M 1.425781 11.558594 "/>
</clipPath>
</defs>
<g id="surface1">
<path style=" stroke:none;fill-rule:nonzero;fill:rgb(0%,22.745098%,27.843139%);fill-opacity:1;" d="M 1.460938 13.160156 C 1.449219 13.160156 1.441406 13.15625 1.433594 13.152344 C 1.425781 13.144531 1.421875 13.136719 1.421875 13.125 L 1.421875 12.914062 C 1.425781 12.914062 1.429688 12.914062 1.4375 12.910156 C 1.445312 12.910156 1.449219 12.910156 1.457031 12.910156 C 1.460938 12.910156 1.46875 12.910156 1.472656 12.910156 C 1.476562 12.914062 1.480469 12.914062 1.484375 12.917969 C 1.488281 12.917969 1.488281 12.921875 1.492188 12.925781 C 1.492188 12.929688 1.496094 12.9375 1.496094 12.945312 L 1.496094 13.105469 L 1.585938 13.105469 C 1.589844 13.105469 1.589844 13.109375 1.59375 13.117188 C 1.59375 13.121094 1.59375 13.125 1.59375 13.132812 C 1.59375 13.140625 1.59375 13.148438 1.585938 13.15625 C 1.582031 13.160156 1.578125 13.160156 1.570312 13.160156 Z M 1.460938 13.160156 "/>
<path style=" stroke:none;fill-rule:nonzero;fill:rgb(0%,22.745098%,27.843139%);fill-opacity:1;" d="M 1.632812 12.953125 C 1.632812 12.941406 1.632812 12.929688 1.640625 12.925781 C 1.648438 12.917969 1.65625 12.914062 1.667969 12.914062 L 1.800781 12.914062 C 1.804688 12.917969 1.804688 12.921875 1.808594 12.925781 C 1.808594 12.929688 1.808594 12.9375 1.808594 12.941406 C 1.808594 12.953125 1.808594 12.960938 1.804688 12.964844 C 1.796875 12.96875 1.792969 12.96875 1.785156 12.96875 L 1.699219 12.96875 L 1.699219 13.007812 L 1.792969 13.007812 C 1.792969 13.011719 1.792969 13.015625 1.796875 13.019531 C 1.796875 13.023438 1.796875 13.027344 1.796875 13.035156 C 1.796875 13.042969 1.796875 13.050781 1.792969 13.054688 C 1.789062 13.058594 1.78125 13.0625 1.773438 13.0625 L 1.699219 13.0625 L 1.699219 13.105469 L 1.804688 13.105469 C 1.804688 13.109375 1.808594 13.113281 1.808594 13.117188 C 1.8125 13.121094 1.8125 13.125 1.8125 13.132812 C 1.8125 13.144531 1.808594 13.148438 1.804688 13.15625 C 1.800781 13.160156 1.792969 13.160156 1.785156 13.160156 L 1.667969 13.160156 C 1.65625 13.160156 1.648438 13.15625 1.640625 13.152344 C 1.632812 13.144531 1.632812 13.136719 1.632812 13.125 Z M 1.632812 12.953125 "/>
<path style=" stroke:none;fill-rule:nonzero;fill:rgb(0%,22.745098%,27.843139%);fill-opacity:1;" d="M 1.90625 12.921875 C 1.910156 12.917969 1.917969 12.917969 1.925781 12.914062 C 1.9375 12.910156 1.945312 12.910156 1.953125 12.910156 C 1.96875 12.910156 1.980469 12.914062 1.992188 12.914062 C 2 12.917969 2.007812 12.925781 2.011719 12.933594 C 2.015625 12.949219 2.019531 12.964844 2.027344 12.984375 C 2.03125 13.003906 2.039062 13.019531 2.042969 13.042969 C 2.050781 13.0625 2.054688 13.082031 2.058594 13.101562 C 2.066406 13.121094 2.070312 13.136719 2.074219 13.152344 C 2.070312 13.15625 2.066406 13.15625 2.058594 13.160156 C 2.054688 13.164062 2.046875 13.164062 2.035156 13.164062 C 2.03125 13.164062 2.023438 13.164062 2.019531 13.164062 C 2.015625 13.160156 2.011719 13.160156 2.007812 13.15625 C 2.007812 13.15625 2.003906 13.152344 2.003906 13.148438 C 2 13.144531 2 13.140625 1.996094 13.136719 L 1.988281 13.109375 L 1.917969 13.109375 C 1.914062 13.117188 1.914062 13.125 1.910156 13.132812 C 1.910156 13.144531 1.90625 13.152344 1.902344 13.160156 C 1.898438 13.160156 1.894531 13.160156 1.890625 13.164062 C 1.886719 13.164062 1.882812 13.164062 1.875 13.164062 C 1.863281 13.164062 1.851562 13.160156 1.847656 13.15625 C 1.839844 13.152344 1.835938 13.144531 1.835938 13.136719 C 1.835938 13.132812 1.835938 13.128906 1.835938 13.125 C 1.839844 13.121094 1.839844 13.117188 1.839844 13.113281 C 1.84375 13.105469 1.847656 13.097656 1.847656 13.085938 C 1.851562 13.074219 1.855469 13.0625 1.859375 13.050781 C 1.863281 13.039062 1.867188 13.023438 1.875 13.011719 C 1.878906 13 1.882812 12.984375 1.886719 12.972656 C 1.890625 12.960938 1.894531 12.953125 1.898438 12.941406 C 1.902344 12.933594 1.902344 12.925781 1.90625 12.921875 Z M 1.953125 12.972656 C 1.949219 12.984375 1.945312 12.996094 1.941406 13.011719 C 1.9375 13.027344 1.933594 13.039062 1.929688 13.054688 L 1.980469 13.054688 C 1.976562 13.039062 1.972656 13.023438 1.96875 13.011719 C 1.964844 12.996094 1.960938 12.984375 1.957031 12.972656 Z M 1.953125 12.972656 "/>
<path style=" stroke:none;fill-rule:nonzero;fill:rgb(0%,22.745098%,27.843139%);fill-opacity:1;" d="M 2.179688 13.082031 L 2.179688 13.15625 C 2.175781 13.160156 2.171875 13.160156 2.164062 13.160156 C 2.15625 13.160156 2.152344 13.160156 2.144531 13.160156 C 2.140625 13.160156 2.132812 13.160156 2.128906 13.160156 C 2.125 13.160156 2.121094 13.15625 2.117188 13.15625 C 2.113281 13.152344 2.109375 13.148438 2.109375 13.144531 C 2.109375 13.140625 2.105469 13.136719 2.105469 13.128906 L 2.105469 12.9375 C 2.105469 12.933594 2.109375 12.925781 2.113281 12.925781 C 2.113281 12.921875 2.121094 12.917969 2.125 12.917969 C 2.132812 12.914062 2.144531 12.910156 2.15625 12.910156 C 2.167969 12.90625 2.183594 12.90625 2.195312 12.90625 C 2.234375 12.90625 2.261719 12.914062 2.28125 12.929688 C 2.296875 12.945312 2.308594 12.96875 2.308594 12.996094 C 2.308594 13.011719 2.304688 13.027344 2.296875 13.039062 C 2.285156 13.050781 2.277344 13.058594 2.265625 13.066406 C 2.273438 13.078125 2.285156 13.089844 2.292969 13.101562 C 2.300781 13.113281 2.308594 13.125 2.316406 13.132812 C 2.3125 13.144531 2.308594 13.152344 2.300781 13.15625 C 2.292969 13.160156 2.285156 13.164062 2.277344 13.164062 C 2.269531 13.164062 2.265625 13.164062 2.261719 13.160156 C 2.257812 13.160156 2.253906 13.15625 2.25 13.15625 C 2.246094 13.152344 2.242188 13.148438 2.242188 13.148438 C 2.238281 13.144531 2.234375 13.140625 2.234375 13.136719 L 2.199219 13.082031 Z M 2.203125 13.027344 C 2.214844 13.027344 2.222656 13.023438 2.226562 13.019531 C 2.234375 13.011719 2.238281 13.003906 2.238281 12.996094 C 2.238281 12.984375 2.234375 12.976562 2.226562 12.972656 C 2.21875 12.964844 2.210938 12.964844 2.195312 12.964844 C 2.191406 12.964844 2.1875 12.964844 2.183594 12.964844 C 2.183594 12.964844 2.179688 12.964844 2.175781 12.964844 L 2.175781 13.027344 Z M 2.203125 13.027344 "/>
<path style=" stroke:none;fill-rule:nonzero;fill:rgb(0%,22.745098%,27.843139%);fill-opacity:1;" d="M 2.578125 13.152344 C 2.574219 13.15625 2.566406 13.15625 2.558594 13.160156 C 2.554688 13.160156 2.542969 13.164062 2.535156 13.164062 C 2.523438 13.164062 2.515625 13.160156 2.507812 13.160156 C 2.496094 13.15625 2.488281 13.148438 2.484375 13.136719 L 2.445312 13.054688 C 2.441406 13.046875 2.4375 13.039062 2.433594 13.03125 C 2.429688 13.023438 2.425781 13.015625 2.421875 13.003906 L 2.421875 13.007812 C 2.421875 13.019531 2.421875 13.035156 2.421875 13.050781 C 2.421875 13.066406 2.421875 13.082031 2.421875 13.09375 L 2.421875 13.15625 C 2.417969 13.160156 2.414062 13.160156 2.410156 13.160156 C 2.402344 13.160156 2.394531 13.160156 2.390625 13.160156 C 2.382812 13.160156 2.378906 13.160156 2.375 13.160156 C 2.371094 13.160156 2.367188 13.160156 2.363281 13.15625 C 2.359375 13.152344 2.359375 13.148438 2.355469 13.144531 C 2.355469 13.140625 2.355469 13.136719 2.355469 13.128906 L 2.355469 12.925781 C 2.359375 12.921875 2.363281 12.917969 2.371094 12.914062 C 2.378906 12.910156 2.386719 12.910156 2.398438 12.910156 C 2.40625 12.910156 2.417969 12.910156 2.425781 12.914062 C 2.433594 12.917969 2.441406 12.925781 2.445312 12.9375 L 2.488281 13.019531 C 2.492188 13.027344 2.496094 13.035156 2.5 13.042969 C 2.5 13.050781 2.503906 13.058594 2.507812 13.066406 L 2.511719 13.066406 C 2.511719 13.054688 2.507812 13.039062 2.507812 13.023438 C 2.507812 13.007812 2.507812 12.996094 2.507812 12.980469 L 2.507812 12.914062 C 2.511719 12.914062 2.515625 12.914062 2.523438 12.910156 C 2.527344 12.910156 2.535156 12.910156 2.539062 12.910156 C 2.550781 12.910156 2.5625 12.914062 2.566406 12.917969 C 2.574219 12.921875 2.578125 12.929688 2.578125 12.941406 Z M 2.578125 13.152344 "/>
<path style=" stroke:none;fill-rule:nonzero;fill:rgb(0%,22.745098%,27.843139%);fill-opacity:1;" d="M 1.632812 13.398438 C 1.628906 13.398438 1.628906 13.398438 1.628906 13.394531 L 1.628906 13.300781 C 1.628906 13.296875 1.628906 13.296875 1.632812 13.296875 L 1.679688 13.296875 C 1.6875 13.296875 1.691406 13.296875 1.699219 13.300781 C 1.703125 13.300781 1.707031 13.304688 1.710938 13.308594 C 1.710938 13.3125 1.714844 13.320312 1.714844 13.324219 C 1.714844 13.328125 1.714844 13.332031 1.710938 13.335938 C 1.710938 13.335938 1.707031 13.339844 1.707031 13.339844 C 1.703125 13.34375 1.703125 13.34375 1.703125 13.34375 C 1.707031 13.347656 1.707031 13.351562 1.710938 13.355469 C 1.714844 13.359375 1.714844 13.363281 1.714844 13.367188 C 1.714844 13.375 1.714844 13.378906 1.710938 13.386719 C 1.710938 13.390625 1.703125 13.394531 1.699219 13.394531 C 1.695312 13.398438 1.6875 13.398438 1.679688 13.398438 Z M 1.652344 13.382812 L 1.675781 13.382812 C 1.679688 13.382812 1.683594 13.378906 1.6875 13.378906 C 1.691406 13.375 1.691406 13.371094 1.691406 13.367188 C 1.691406 13.363281 1.691406 13.359375 1.6875 13.359375 C 1.683594 13.355469 1.679688 13.355469 1.675781 13.355469 L 1.652344 13.355469 Z M 1.652344 13.335938 L 1.675781 13.335938 C 1.679688 13.335938 1.683594 13.335938 1.6875 13.332031 C 1.6875 13.332031 1.6875 13.328125 1.6875 13.324219 C 1.6875 13.320312 1.6875 13.320312 1.6875 13.316406 C 1.683594 13.3125 1.679688 13.3125 1.675781 13.3125 L 1.652344 13.3125 Z M 1.652344 13.335938 "/>
<path style=" stroke:none;fill-rule:nonzero;fill:rgb(0%,22.745098%,27.843139%);fill-opacity:1;" d="M 1.835938 13.402344 C 1.828125 13.402344 1.820312 13.398438 1.8125 13.398438 C 1.804688 13.394531 1.800781 13.390625 1.796875 13.382812 C 1.792969 13.378906 1.792969 13.371094 1.792969 13.359375 L 1.792969 13.300781 C 1.792969 13.296875 1.792969 13.296875 1.792969 13.296875 C 1.792969 13.296875 1.796875 13.296875 1.796875 13.296875 L 1.8125 13.296875 C 1.8125 13.296875 1.816406 13.296875 1.816406 13.296875 C 1.816406 13.296875 1.816406 13.296875 1.816406 13.300781 L 1.816406 13.359375 C 1.816406 13.367188 1.816406 13.371094 1.820312 13.375 C 1.824219 13.378906 1.828125 13.382812 1.835938 13.382812 C 1.84375 13.382812 1.847656 13.378906 1.851562 13.375 C 1.855469 13.371094 1.855469 13.367188 1.855469 13.359375 L 1.855469 13.300781 C 1.855469 13.296875 1.855469 13.296875 1.855469 13.296875 C 1.859375 13.296875 1.859375 13.296875 1.859375 13.296875 L 1.875 13.296875 C 1.878906 13.296875 1.878906 13.296875 1.878906 13.296875 C 1.878906 13.296875 1.878906 13.296875 1.878906 13.300781 L 1.878906 13.359375 C 1.878906 13.371094 1.878906 13.378906 1.875 13.382812 C 1.871094 13.390625 1.867188 13.394531 1.859375 13.398438 C 1.851562 13.398438 1.84375 13.402344 1.835938 13.402344 Z M 1.835938 13.402344 "/>
<path style=" stroke:none;fill-rule:nonzero;fill:rgb(0%,22.745098%,27.843139%);fill-opacity:1;" d="M 1.964844 13.398438 C 1.964844 13.398438 1.960938 13.398438 1.960938 13.398438 C 1.960938 13.398438 1.960938 13.398438 1.960938 13.394531 L 1.960938 13.300781 C 1.960938 13.296875 1.960938 13.296875 1.960938 13.296875 C 1.960938 13.296875 1.964844 13.296875 1.964844 13.296875 L 2 13.296875 C 2.011719 13.296875 2.019531 13.296875 2.027344 13.300781 C 2.035156 13.304688 2.039062 13.308594 2.042969 13.3125 C 2.046875 13.320312 2.046875 13.328125 2.046875 13.335938 C 2.046875 13.339844 2.046875 13.34375 2.046875 13.347656 C 2.046875 13.351562 2.046875 13.355469 2.046875 13.359375 C 2.046875 13.367188 2.046875 13.375 2.042969 13.382812 C 2.039062 13.386719 2.035156 13.390625 2.027344 13.394531 C 2.019531 13.398438 2.011719 13.398438 2.003906 13.398438 Z M 1.984375 13.378906 L 2 13.378906 C 2.007812 13.378906 2.011719 13.378906 2.015625 13.378906 C 2.015625 13.375 2.019531 13.375 2.019531 13.371094 C 2.023438 13.367188 2.023438 13.363281 2.023438 13.359375 C 2.023438 13.355469 2.023438 13.351562 2.023438 13.351562 C 2.023438 13.347656 2.023438 13.347656 2.023438 13.34375 C 2.023438 13.339844 2.023438 13.339844 2.023438 13.335938 C 2.023438 13.328125 2.019531 13.324219 2.019531 13.320312 C 2.015625 13.316406 2.007812 13.316406 2 13.316406 L 1.984375 13.316406 Z M 1.984375 13.378906 "/>
<path style=" stroke:none;fill-rule:nonzero;fill:rgb(0%,22.745098%,27.843139%);fill-opacity:1;" d="M 2.128906 13.398438 C 2.125 13.398438 2.125 13.398438 2.125 13.394531 L 2.125 13.300781 C 2.125 13.296875 2.125 13.296875 2.128906 13.296875 L 2.167969 13.296875 C 2.175781 13.296875 2.183594 13.296875 2.191406 13.300781 C 2.199219 13.304688 2.203125 13.308594 2.207031 13.3125 C 2.210938 13.320312 2.214844 13.328125 2.214844 13.335938 C 2.214844 13.339844 2.214844 13.34375 2.214844 13.347656 C 2.214844 13.351562 2.214844 13.355469 2.214844 13.359375 C 2.210938 13.367188 2.210938 13.375 2.207031 13.382812 C 2.203125 13.386719 2.199219 13.390625 2.191406 13.394531 C 2.1875 13.398438 2.179688 13.398438 2.167969 13.398438 Z M 2.148438 13.378906 L 2.167969 13.378906 C 2.171875 13.378906 2.175781 13.378906 2.179688 13.378906 C 2.183594 13.375 2.183594 13.375 2.1875 13.371094 C 2.1875 13.367188 2.1875 13.363281 2.1875 13.359375 C 2.1875 13.355469 2.1875 13.351562 2.1875 13.351562 C 2.1875 13.347656 2.1875 13.347656 2.1875 13.34375 C 2.1875 13.339844 2.1875 13.339844 2.1875 13.335938 C 2.1875 13.328125 2.1875 13.324219 2.183594 13.320312 C 2.179688 13.316406 2.175781 13.316406 2.167969 13.316406 L 2.148438 13.316406 Z M 2.148438 13.378906 "/>
<path style=" stroke:none;fill-rule:nonzero;fill:rgb(0%,22.745098%,27.843139%);fill-opacity:1;" d="M 2.324219 13.398438 C 2.320312 13.398438 2.320312 13.398438 2.320312 13.398438 C 2.320312 13.398438 2.320312 13.398438 2.320312 13.394531 L 2.320312 13.363281 L 2.285156 13.300781 C 2.285156 13.300781 2.285156 13.296875 2.285156 13.296875 L 2.300781 13.296875 C 2.304688 13.296875 2.304688 13.296875 2.304688 13.296875 C 2.304688 13.296875 2.308594 13.296875 2.308594 13.296875 L 2.332031 13.339844 L 2.355469 13.296875 C 2.355469 13.296875 2.359375 13.296875 2.359375 13.296875 L 2.375 13.296875 C 2.375 13.296875 2.375 13.296875 2.378906 13.296875 C 2.378906 13.296875 2.378906 13.300781 2.378906 13.300781 L 2.34375 13.363281 L 2.34375 13.394531 C 2.34375 13.398438 2.34375 13.398438 2.339844 13.398438 Z M 2.324219 13.398438 "/>
<path style=" stroke:none;fill-rule:nonzero;fill:rgb(96.862745%,57.647061%,11.764706%);fill-opacity:1;" d="M 2.351562 12.34375 C 2.351562 12.34375 2.351562 12.34375 2.347656 12.339844 C 2.34375 12.339844 2.339844 12.34375 2.332031 12.34375 C 2.324219 12.34375 2.320312 12.339844 2.3125 12.339844 C 2.320312 12.355469 2.332031 12.371094 2.347656 12.382812 C 2.363281 12.390625 2.371094 12.390625 2.390625 12.386719 C 2.382812 12.363281 2.375 12.355469 2.351562 12.34375 Z M 2.351562 12.34375 "/>
<path style=" stroke:none;fill-rule:nonzero;fill:rgb(3.137255%,54.11765%,71.764708%);fill-opacity:1;" d="M 2.3125 12.652344 L 2.289062 12.652344 C 2.308594 12.683594 2.328125 12.710938 2.363281 12.722656 C 2.390625 12.730469 2.4375 12.722656 2.457031 12.699219 C 2.472656 12.675781 2.476562 12.632812 2.460938 12.605469 C 2.4375 12.621094 2.414062 12.632812 2.390625 12.640625 C 2.363281 12.648438 2.339844 12.652344 2.3125 12.652344 Z M 2.3125 12.652344 "/>
<path style=" stroke:none;fill-rule:nonzero;fill:rgb(96.862745%,57.647061%,11.764706%);fill-opacity:1;" d="M 2.308594 12.320312 C 2.34375 12.328125 2.386719 12.316406 2.417969 12.289062 C 2.386719 12.277344 2.355469 12.265625 2.320312 12.261719 C 2.3125 12.28125 2.308594 12.296875 2.308594 12.320312 Z M 2.308594 12.320312 "/>
<path style=" stroke:none;fill-rule:nonzero;fill:rgb(16.078432%,67.058825%,88.627452%);fill-opacity:1;" d="M 2.394531 11.734375 C 2.394531 11.738281 2.394531 11.742188 2.390625 11.746094 C 2.390625 11.746094 2.390625 11.75 2.386719 11.75 C 2.386719 11.75 2.382812 11.753906 2.382812 11.753906 C 2.382812 11.753906 2.378906 11.75 2.378906 11.75 C 2.375 11.75 2.375 11.75 2.375 11.746094 C 2.371094 11.742188 2.371094 11.742188 2.371094 11.738281 C 2.402344 11.667969 2.378906 11.617188 2.355469 11.589844 C 2.351562 11.585938 2.347656 11.585938 2.34375 11.585938 C 2.339844 11.585938 2.339844 11.589844 2.335938 11.59375 C 2.292969 11.695312 2.136719 11.71875 2.128906 11.71875 L 1.6875 11.71875 C 1.679688 11.71875 1.671875 11.71875 1.664062 11.722656 C 1.65625 11.722656 1.648438 11.722656 1.640625 11.722656 C 1.632812 11.726562 1.625 11.726562 1.617188 11.730469 C 1.609375 11.730469 1.601562 11.734375 1.597656 11.738281 C 1.589844 11.742188 1.582031 11.746094 1.574219 11.746094 C 1.566406 11.75 1.5625 11.753906 1.554688 11.761719 C 1.546875 11.765625 1.542969 11.769531 1.535156 11.773438 C 1.53125 11.777344 1.523438 11.785156 1.519531 11.789062 C 1.511719 11.796875 1.507812 11.800781 1.503906 11.808594 C 1.496094 11.8125 1.492188 11.820312 1.488281 11.824219 C 1.484375 11.832031 1.480469 11.839844 1.476562 11.847656 C 1.472656 11.851562 1.46875 11.859375 1.464844 11.867188 C 1.464844 11.875 1.460938 11.882812 1.457031 11.890625 C 1.457031 11.898438 1.453125 11.90625 1.453125 11.914062 C 1.453125 11.917969 1.449219 11.925781 1.449219 11.933594 C 1.449219 11.941406 1.449219 11.949219 1.449219 11.957031 L 1.449219 12.390625 C 1.449219 12.398438 1.449219 12.40625 1.449219 12.414062 C 1.449219 12.421875 1.453125 12.429688 1.453125 12.4375 C 1.453125 12.445312 1.457031 12.453125 1.457031 12.460938 C 1.460938 12.46875 1.464844 12.476562 1.464844 12.484375 C 1.46875 12.492188 1.472656 12.496094 1.476562 12.503906 C 1.480469 12.511719 1.484375 12.519531 1.488281 12.523438 C 1.492188 12.53125 1.496094 12.539062 1.503906 12.542969 C 1.507812 12.550781 1.511719 12.554688 1.519531 12.5625 C 1.523438 12.566406 1.53125 12.570312 1.535156 12.578125 C 1.542969 12.582031 1.546875 12.585938 1.554688 12.589844 C 1.5625 12.59375 1.566406 12.597656 1.574219 12.601562 C 1.582031 12.605469 1.589844 12.609375 1.597656 12.613281 C 1.601562 12.617188 1.609375 12.617188 1.617188 12.621094 C 1.625 12.621094 1.632812 12.625 1.640625 12.625 C 1.648438 12.628906 1.65625 12.628906 1.664062 12.628906 C 1.671875 12.628906 1.679688 12.632812 1.6875 12.632812 L 1.828125 12.632812 C 1.789062 12.5625 1.761719 12.488281 1.75 12.410156 C 1.75 12.40625 1.75 12.40625 1.75 12.402344 C 1.753906 12.402344 1.753906 12.398438 1.757812 12.398438 C 1.761719 12.398438 1.761719 12.398438 1.765625 12.398438 C 1.765625 12.402344 1.769531 12.402344 1.769531 12.40625 C 1.785156 12.488281 1.8125 12.5625 1.851562 12.636719 C 1.859375 12.648438 1.867188 12.660156 1.875 12.675781 C 1.894531 12.703125 1.925781 12.742188 1.964844 12.761719 C 2 12.773438 2.046875 12.769531 2.070312 12.738281 C 2.085938 12.714844 2.085938 12.6875 2.085938 12.660156 C 2.085938 12.652344 2.085938 12.648438 2.082031 12.640625 C 2.078125 12.558594 2.058594 12.476562 2.023438 12.398438 C 2.023438 12.394531 2.023438 12.394531 2.023438 12.394531 C 2.023438 12.390625 2.023438 12.390625 2.023438 12.390625 C 2.023438 12.386719 2.023438 12.386719 2.023438 12.386719 C 2.027344 12.382812 2.027344 12.382812 2.027344 12.382812 C 2.027344 12.382812 2.03125 12.382812 2.03125 12.382812 C 2.035156 12.382812 2.035156 12.382812 2.035156 12.382812 C 2.039062 12.382812 2.039062 12.382812 2.039062 12.386719 C 2.039062 12.386719 2.042969 12.386719 2.042969 12.390625 C 2.074219 12.464844 2.097656 12.546875 2.101562 12.632812 L 2.3125 12.632812 C 2.320312 12.632812 2.328125 12.628906 2.335938 12.628906 C 2.34375 12.628906 2.351562 12.628906 2.359375 12.625 C 2.367188 12.625 2.375 12.621094 2.382812 12.621094 C 2.390625 12.617188 2.398438 12.617188 2.40625 12.613281 C 2.410156 12.609375 2.417969 12.605469 2.425781 12.601562 C 2.433594 12.597656 2.441406 12.59375 2.445312 12.589844 C 2.453125 12.585938 2.457031 12.582031 2.464844 12.578125 C 2.472656 12.570312 2.476562 12.566406 2.480469 12.5625 C 2.488281 12.554688 2.492188 12.550781 2.496094 12.542969 C 2.503906 12.539062 2.507812 12.53125 2.511719 12.523438 C 2.515625 12.519531 2.519531 12.511719 2.523438 12.503906 C 2.527344 12.496094 2.53125 12.492188 2.535156 12.484375 C 2.535156 12.476562 2.539062 12.46875 2.542969 12.460938 C 2.542969 12.453125 2.546875 12.445312 2.546875 12.4375 C 2.550781 12.429688 2.550781 12.421875 2.550781 12.414062 C 2.550781 12.40625 2.550781 12.398438 2.550781 12.390625 L 2.550781 11.957031 C 2.550781 11.855469 2.492188 11.765625 2.394531 11.734375 Z M 2.441406 12.292969 C 2.421875 12.3125 2.402344 12.328125 2.375 12.335938 C 2.398438 12.347656 2.402344 12.367188 2.414062 12.390625 C 2.414062 12.390625 2.414062 12.390625 2.414062 12.394531 C 2.414062 12.394531 2.414062 12.398438 2.410156 12.398438 C 2.410156 12.398438 2.410156 12.398438 2.410156 12.402344 C 2.40625 12.402344 2.40625 12.402344 2.40625 12.402344 C 2.402344 12.402344 2.398438 12.402344 2.394531 12.40625 C 2.386719 12.40625 2.378906 12.40625 2.371094 12.40625 C 2.355469 12.40625 2.347656 12.40625 2.335938 12.398438 C 2.324219 12.390625 2.316406 12.378906 2.304688 12.367188 C 2.296875 12.359375 2.292969 12.34375 2.289062 12.332031 C 2.289062 12.328125 2.289062 12.328125 2.289062 12.328125 C 2.289062 12.296875 2.292969 12.269531 2.308594 12.246094 C 2.308594 12.246094 2.308594 12.242188 2.3125 12.242188 C 2.3125 12.242188 2.316406 12.242188 2.316406 12.242188 C 2.359375 12.246094 2.398438 12.257812 2.4375 12.277344 C 2.4375 12.277344 2.441406 12.277344 2.441406 12.28125 C 2.441406 12.28125 2.441406 12.28125 2.441406 12.285156 C 2.441406 12.285156 2.441406 12.285156 2.441406 12.289062 C 2.441406 12.289062 2.441406 12.292969 2.441406 12.292969 Z M 2.441406 12.292969 "/>
<path style=" stroke:none;fill-rule:nonzero;fill:rgb(16.078432%,67.058825%,88.627452%);fill-opacity:1;" d="M 2.4375 12.277344 C 2.398438 12.257812 2.359375 12.246094 2.316406 12.242188 C 2.316406 12.242188 2.3125 12.242188 2.3125 12.242188 C 2.308594 12.242188 2.308594 12.246094 2.308594 12.246094 C 2.292969 12.269531 2.285156 12.296875 2.289062 12.328125 C 2.285156 12.328125 2.285156 12.328125 2.289062 12.332031 C 2.292969 12.34375 2.296875 12.359375 2.304688 12.371094 C 2.3125 12.378906 2.324219 12.390625 2.335938 12.398438 C 2.347656 12.40625 2.355469 12.40625 2.371094 12.40625 C 2.378906 12.40625 2.386719 12.40625 2.394531 12.40625 C 2.398438 12.402344 2.402344 12.402344 2.40625 12.402344 C 2.40625 12.402344 2.40625 12.402344 2.410156 12.402344 C 2.410156 12.398438 2.410156 12.398438 2.410156 12.398438 C 2.414062 12.398438 2.414062 12.394531 2.414062 12.394531 C 2.414062 12.390625 2.414062 12.390625 2.414062 12.390625 C 2.402344 12.367188 2.398438 12.347656 2.375 12.335938 C 2.402344 12.328125 2.421875 12.3125 2.441406 12.292969 C 2.441406 12.292969 2.441406 12.289062 2.441406 12.289062 C 2.441406 12.285156 2.441406 12.285156 2.441406 12.285156 C 2.441406 12.28125 2.441406 12.28125 2.441406 12.28125 C 2.441406 12.277344 2.4375 12.277344 2.4375 12.277344 Z M 2.390625 12.386719 C 2.371094 12.390625 2.363281 12.390625 2.347656 12.382812 C 2.332031 12.371094 2.320312 12.355469 2.3125 12.339844 C 2.320312 12.339844 2.324219 12.34375 2.332031 12.34375 C 2.339844 12.34375 2.34375 12.339844 2.347656 12.339844 C 2.351562 12.34375 2.351562 12.34375 2.351562 12.34375 C 2.375 12.355469 2.382812 12.363281 2.390625 12.386719 Z M 2.308594 12.320312 C 2.308594 12.296875 2.3125 12.28125 2.320312 12.261719 C 2.355469 12.265625 2.386719 12.277344 2.417969 12.289062 C 2.386719 12.316406 2.34375 12.328125 2.308594 12.320312 Z M 2.308594 12.320312 "/>
<path style=" stroke:none;fill-rule:nonzero;fill:rgb(3.137255%,54.11765%,71.764708%);fill-opacity:1;" d="M 1.660156 11.722656 C 1.65625 11.722656 1.648438 11.722656 1.640625 11.722656 C 1.632812 11.726562 1.625 11.726562 1.617188 11.730469 C 1.613281 11.730469 1.605469 11.734375 1.597656 11.738281 C 1.589844 11.738281 1.585938 11.742188 1.578125 11.746094 C 1.570312 11.75 1.566406 11.753906 1.558594 11.757812 C 1.554688 11.761719 1.546875 11.765625 1.542969 11.769531 C 1.535156 11.773438 1.53125 11.777344 1.523438 11.785156 C 1.519531 11.789062 1.515625 11.792969 1.507812 11.800781 C 1.503906 11.804688 1.5 11.808594 1.496094 11.816406 C 1.492188 11.820312 1.488281 11.828125 1.484375 11.835938 C 1.480469 11.839844 1.476562 11.847656 1.472656 11.851562 C 1.46875 11.859375 1.464844 11.867188 1.464844 11.875 C 1.460938 11.878906 1.460938 11.886719 1.457031 11.894531 C 1.457031 11.902344 1.453125 11.90625 1.453125 11.914062 C 1.449219 11.921875 1.449219 11.929688 1.449219 11.9375 C 1.449219 11.945312 1.449219 11.953125 1.449219 11.957031 L 1.449219 12.390625 C 1.449219 12.398438 1.449219 12.40625 1.449219 12.414062 C 1.449219 12.421875 1.453125 12.429688 1.453125 12.4375 C 1.453125 12.445312 1.457031 12.453125 1.457031 12.460938 C 1.460938 12.46875 1.464844 12.476562 1.464844 12.484375 C 1.46875 12.492188 1.472656 12.496094 1.476562 12.503906 C 1.480469 12.511719 1.484375 12.519531 1.488281 12.523438 C 1.492188 12.53125 1.496094 12.539062 1.503906 12.542969 C 1.507812 12.550781 1.511719 12.554688 1.519531 12.5625 C 1.523438 12.566406 1.53125 12.570312 1.535156 12.578125 C 1.542969 12.582031 1.546875 12.585938 1.554688 12.589844 C 1.5625 12.59375 1.566406 12.597656 1.574219 12.601562 C 1.582031 12.605469 1.589844 12.609375 1.597656 12.613281 C 1.601562 12.617188 1.609375 12.617188 1.617188 12.621094 C 1.625 12.621094 1.632812 12.625 1.640625 12.625 C 1.648438 12.628906 1.65625 12.628906 1.664062 12.628906 C 1.671875 12.628906 1.679688 12.632812 1.6875 12.632812 L 1.828125 12.632812 C 1.789062 12.5625 1.761719 12.488281 1.75 12.410156 C 1.535156 12.144531 1.660156 11.722656 1.660156 11.722656 Z M 1.660156 11.722656 "/>
<path style=" stroke:none;fill-rule:nonzero;fill:rgb(3.137255%,54.11765%,71.764708%);fill-opacity:1;" d="M 2.480469 12.5625 C 2.476562 12.5625 2.292969 12.605469 2.097656 12.578125 C 2.097656 12.597656 2.101562 12.613281 2.101562 12.632812 L 2.3125 12.632812 C 2.328125 12.632812 2.34375 12.628906 2.359375 12.625 C 2.375 12.625 2.390625 12.621094 2.402344 12.613281 C 2.417969 12.609375 2.429688 12.601562 2.445312 12.59375 C 2.457031 12.582031 2.46875 12.574219 2.480469 12.5625 Z M 2.480469 12.5625 "/>
<path style=" stroke:none;fill-rule:nonzero;fill:rgb(3.137255%,54.11765%,71.764708%);fill-opacity:1;" d="M 2.085938 12.660156 C 2.085938 12.652344 2.085938 12.648438 2.082031 12.640625 C 2.082031 12.621094 2.082031 12.605469 2.078125 12.585938 C 2.078125 12.597656 2.074219 12.613281 2.070312 12.625 C 2.0625 12.636719 2.054688 12.648438 2.042969 12.660156 C 1.984375 12.710938 1.921875 12.660156 1.878906 12.609375 C 1.832031 12.554688 1.796875 12.492188 1.773438 12.425781 C 1.789062 12.5 1.8125 12.570312 1.851562 12.636719 C 1.859375 12.648438 1.867188 12.660156 1.875 12.675781 C 1.894531 12.703125 1.925781 12.742188 1.964844 12.757812 C 2 12.773438 2.046875 12.769531 2.070312 12.738281 C 2.085938 12.714844 2.085938 12.6875 2.085938 12.660156 Z M 2.085938 12.660156 "/>
<path style=" stroke:none;fill-rule:nonzero;fill:rgb(51.372552%,87.450981%,100%);fill-opacity:1;" d="M 2.550781 11.957031 C 2.550781 11.855469 2.492188 11.765625 2.394531 11.734375 C 2.394531 11.738281 2.394531 11.742188 2.390625 11.746094 C 2.390625 11.75 2.386719 11.75 2.382812 11.753906 C 2.46875 11.796875 2.53125 11.882812 2.550781 11.976562 Z M 2.550781 11.957031 "/>
<path style=" stroke:none;fill-rule:nonzero;fill:rgb(51.372552%,87.450981%,100%);fill-opacity:1;" d="M 2.355469 11.589844 C 2.351562 11.585938 2.347656 11.585938 2.34375 11.585938 C 2.339844 11.585938 2.339844 11.589844 2.335938 11.59375 C 2.332031 11.605469 2.324219 11.621094 2.3125 11.632812 C 2.316406 11.628906 2.320312 11.628906 2.324219 11.628906 C 2.328125 11.628906 2.332031 11.628906 2.335938 11.632812 C 2.351562 11.640625 2.355469 11.652344 2.363281 11.664062 C 2.371094 11.683594 2.375 11.707031 2.375 11.726562 C 2.398438 11.660156 2.378906 11.617188 2.355469 11.589844 Z M 2.355469 11.589844 "/>
<g clip-path="url(#clip1)" clip-rule="nonzero">
<path style=" stroke:none;fill-rule:nonzero;fill:rgb(0%,16.862746%,20.784314%);fill-opacity:1;" d="M 2.40625 11.710938 C 2.421875 11.644531 2.394531 11.597656 2.371094 11.574219 C 2.367188 11.570312 2.363281 11.566406 2.359375 11.5625 C 2.351562 11.5625 2.347656 11.5625 2.339844 11.5625 C 2.335938 11.5625 2.332031 11.566406 2.324219 11.570312 C 2.320312 11.574219 2.316406 11.578125 2.316406 11.582031 C 2.277344 11.667969 2.140625 11.695312 2.128906 11.695312 L 1.6875 11.695312 C 1.679688 11.695312 1.671875 11.695312 1.660156 11.695312 C 1.652344 11.699219 1.644531 11.699219 1.636719 11.699219 C 1.628906 11.703125 1.621094 11.703125 1.609375 11.707031 C 1.601562 11.710938 1.59375 11.710938 1.585938 11.714844 C 1.578125 11.71875 1.570312 11.722656 1.5625 11.726562 C 1.554688 11.730469 1.546875 11.734375 1.542969 11.738281 C 1.535156 11.746094 1.527344 11.75 1.519531 11.753906 C 1.515625 11.761719 1.507812 11.765625 1.5 11.773438 C 1.496094 11.777344 1.488281 11.785156 1.484375 11.792969 C 1.480469 11.796875 1.472656 11.804688 1.46875 11.8125 C 1.464844 11.820312 1.460938 11.828125 1.457031 11.835938 C 1.453125 11.84375 1.449219 11.851562 1.445312 11.859375 C 1.441406 11.867188 1.4375 11.875 1.4375 11.882812 C 1.433594 11.890625 1.429688 11.898438 1.429688 11.90625 C 1.425781 11.914062 1.425781 11.925781 1.425781 11.933594 C 1.425781 11.941406 1.425781 11.949219 1.425781 11.957031 L 1.425781 12.390625 C 1.425781 12.402344 1.425781 12.410156 1.425781 12.417969 C 1.425781 12.425781 1.425781 12.433594 1.429688 12.445312 C 1.429688 12.453125 1.433594 12.460938 1.4375 12.46875 C 1.4375 12.476562 1.441406 12.484375 1.445312 12.492188 C 1.449219 12.5 1.453125 12.507812 1.457031 12.515625 C 1.460938 12.523438 1.464844 12.53125 1.46875 12.539062 C 1.472656 12.546875 1.480469 12.550781 1.484375 12.558594 C 1.488281 12.566406 1.496094 12.570312 1.5 12.578125 C 1.507812 12.585938 1.515625 12.589844 1.519531 12.59375 C 1.527344 12.601562 1.535156 12.605469 1.542969 12.609375 C 1.546875 12.617188 1.554688 12.621094 1.5625 12.625 C 1.570312 12.628906 1.578125 12.632812 1.585938 12.636719 C 1.59375 12.636719 1.601562 12.640625 1.609375 12.644531 C 1.621094 12.644531 1.628906 12.648438 1.636719 12.648438 C 1.644531 12.652344 1.652344 12.652344 1.660156 12.652344 C 1.671875 12.65625 1.679688 12.65625 1.6875 12.65625 L 1.835938 12.65625 C 1.839844 12.664062 1.847656 12.675781 1.855469 12.6875 C 1.878906 12.722656 1.910156 12.761719 1.953125 12.78125 C 1.972656 12.789062 1.988281 12.792969 2.003906 12.792969 C 2.039062 12.792969 2.070312 12.78125 2.089844 12.75 C 2.109375 12.722656 2.109375 12.691406 2.109375 12.65625 L 2.261719 12.65625 C 2.285156 12.695312 2.3125 12.730469 2.355469 12.746094 C 2.367188 12.75 2.378906 12.75 2.390625 12.75 C 2.421875 12.75 2.457031 12.738281 2.476562 12.714844 C 2.5 12.683594 2.5 12.628906 2.480469 12.59375 C 2.496094 12.582031 2.507812 12.570312 2.519531 12.554688 C 2.53125 12.539062 2.542969 12.519531 2.550781 12.503906 C 2.558594 12.488281 2.566406 12.46875 2.570312 12.449219 C 2.574219 12.429688 2.578125 12.410156 2.578125 12.390625 L 2.578125 11.957031 C 2.578125 11.84375 2.507812 11.75 2.40625 11.710938 Z M 2.453125 12.699219 C 2.4375 12.71875 2.390625 12.726562 2.363281 12.71875 C 2.332031 12.710938 2.3125 12.683594 2.292969 12.65625 L 2.3125 12.65625 C 2.339844 12.65625 2.363281 12.652344 2.390625 12.644531 C 2.414062 12.636719 2.4375 12.625 2.457031 12.609375 C 2.46875 12.636719 2.46875 12.675781 2.453125 12.699219 Z M 2.3125 12.628906 L 2.105469 12.628906 C 2.097656 12.542969 2.078125 12.464844 2.046875 12.386719 C 2.042969 12.386719 2.042969 12.382812 2.042969 12.382812 C 2.039062 12.382812 2.039062 12.378906 2.039062 12.378906 C 2.035156 12.378906 2.035156 12.378906 2.03125 12.378906 C 2.03125 12.378906 2.027344 12.378906 2.027344 12.378906 C 2.023438 12.378906 2.023438 12.382812 2.023438 12.382812 C 2.019531 12.382812 2.019531 12.386719 2.019531 12.386719 C 2.019531 12.390625 2.019531 12.390625 2.019531 12.394531 C 2.019531 12.394531 2.019531 12.398438 2.019531 12.398438 C 2.054688 12.476562 2.074219 12.558594 2.078125 12.640625 C 2.082031 12.648438 2.082031 12.652344 2.082031 12.660156 C 2.082031 12.6875 2.082031 12.714844 2.066406 12.734375 C 2.046875 12.765625 2 12.769531 1.964844 12.757812 C 1.925781 12.738281 1.898438 12.703125 1.878906 12.671875 C 1.871094 12.660156 1.863281 12.648438 1.855469 12.632812 C 1.8125 12.5625 1.789062 12.488281 1.773438 12.40625 C 1.773438 12.402344 1.773438 12.402344 1.773438 12.398438 C 1.769531 12.398438 1.769531 12.398438 1.769531 12.394531 C 1.765625 12.394531 1.765625 12.394531 1.761719 12.394531 C 1.761719 12.394531 1.757812 12.394531 1.757812 12.394531 C 1.753906 12.394531 1.753906 12.394531 1.753906 12.394531 C 1.75 12.398438 1.75 12.398438 1.75 12.398438 C 1.746094 12.402344 1.746094 12.402344 1.746094 12.40625 C 1.746094 12.40625 1.746094 12.410156 1.746094 12.410156 C 1.757812 12.488281 1.785156 12.558594 1.820312 12.628906 L 1.6875 12.628906 C 1.679688 12.628906 1.671875 12.625 1.664062 12.625 C 1.65625 12.625 1.648438 12.625 1.640625 12.621094 C 1.632812 12.621094 1.625 12.617188 1.617188 12.617188 C 1.613281 12.613281 1.605469 12.613281 1.597656 12.609375 C 1.589844 12.605469 1.582031 12.601562 1.578125 12.597656 C 1.570312 12.59375 1.5625 12.589844 1.558594 12.585938 C 1.550781 12.582031 1.542969 12.578125 1.539062 12.574219 C 1.53125 12.570312 1.527344 12.5625 1.519531 12.558594 C 1.515625 12.550781 1.511719 12.546875 1.503906 12.542969 C 1.5 12.535156 1.496094 12.527344 1.492188 12.523438 C 1.488281 12.515625 1.484375 12.507812 1.480469 12.503906 C 1.476562 12.496094 1.472656 12.488281 1.46875 12.480469 C 1.46875 12.476562 1.464844 12.46875 1.460938 12.460938 C 1.460938 12.453125 1.457031 12.445312 1.457031 12.4375 C 1.457031 12.429688 1.453125 12.421875 1.453125 12.414062 C 1.453125 12.40625 1.453125 12.398438 1.453125 12.390625 L 1.453125 11.957031 C 1.453125 11.949219 1.453125 11.945312 1.453125 11.9375 C 1.453125 11.929688 1.457031 11.921875 1.457031 11.914062 C 1.457031 11.90625 1.460938 11.898438 1.460938 11.890625 C 1.464844 11.882812 1.46875 11.875 1.46875 11.867188 C 1.472656 11.863281 1.476562 11.855469 1.480469 11.847656 C 1.484375 11.839844 1.488281 11.835938 1.492188 11.828125 C 1.496094 11.820312 1.5 11.816406 1.503906 11.808594 C 1.511719 11.804688 1.515625 11.796875 1.519531 11.792969 C 1.527344 11.789062 1.53125 11.78125 1.539062 11.777344 C 1.542969 11.773438 1.550781 11.769531 1.558594 11.761719 C 1.5625 11.757812 1.570312 11.753906 1.578125 11.75 C 1.582031 11.746094 1.589844 11.746094 1.597656 11.742188 C 1.605469 11.738281 1.613281 11.734375 1.617188 11.734375 C 1.625 11.730469 1.632812 11.730469 1.640625 11.726562 C 1.648438 11.726562 1.65625 11.726562 1.664062 11.726562 C 1.671875 11.722656 1.679688 11.722656 1.6875 11.722656 L 2.128906 11.722656 C 2.136719 11.722656 2.296875 11.699219 2.339844 11.59375 C 2.34375 11.59375 2.34375 11.589844 2.34375 11.589844 C 2.347656 11.589844 2.351562 11.589844 2.351562 11.59375 C 2.375 11.621094 2.398438 11.667969 2.371094 11.738281 C 2.367188 11.738281 2.367188 11.742188 2.367188 11.742188 C 2.367188 11.746094 2.367188 11.746094 2.371094 11.746094 C 2.371094 11.75 2.371094 11.75 2.371094 11.753906 C 2.375 11.753906 2.375 11.753906 2.378906 11.753906 C 2.378906 11.757812 2.378906 11.757812 2.382812 11.757812 C 2.386719 11.757812 2.386719 11.753906 2.390625 11.753906 C 2.390625 11.753906 2.394531 11.75 2.394531 11.746094 C 2.394531 11.746094 2.398438 11.742188 2.398438 11.738281 C 2.480469 11.769531 2.539062 11.84375 2.546875 11.933594 C 2.539062 11.925781 2.53125 11.921875 2.519531 11.917969 C 2.507812 11.914062 2.496094 11.914062 2.484375 11.914062 C 2.472656 11.914062 2.460938 11.914062 2.449219 11.921875 C 2.449219 11.921875 2.449219 11.921875 2.445312 11.921875 C 2.445312 11.925781 2.445312 11.925781 2.445312 11.929688 C 2.441406 11.929688 2.441406 11.929688 2.441406 11.933594 C 2.441406 11.933594 2.441406 11.9375 2.445312 11.9375 C 2.445312 11.941406 2.445312 11.941406 2.445312 11.941406 C 2.449219 11.945312 2.449219 11.945312 2.449219 11.945312 C 2.453125 11.945312 2.453125 11.945312 2.457031 11.945312 C 2.457031 11.945312 2.460938 11.945312 2.460938 11.945312 C 2.464844 11.945312 2.46875 11.945312 2.472656 11.941406 C 2.476562 11.941406 2.480469 11.941406 2.484375 11.941406 C 2.488281 11.941406 2.492188 11.941406 2.496094 11.941406 C 2.503906 11.941406 2.507812 11.945312 2.511719 11.945312 C 2.515625 11.945312 2.519531 11.949219 2.523438 11.949219 C 2.523438 11.953125 2.527344 11.953125 2.53125 11.957031 C 2.535156 11.960938 2.539062 11.964844 2.542969 11.964844 C 2.542969 11.96875 2.546875 11.972656 2.546875 11.976562 L 2.546875 12.390625 C 2.546875 12.398438 2.546875 12.40625 2.546875 12.414062 C 2.546875 12.421875 2.546875 12.429688 2.542969 12.4375 C 2.542969 12.445312 2.539062 12.453125 2.539062 12.460938 C 2.535156 12.46875 2.535156 12.476562 2.53125 12.480469 C 2.527344 12.488281 2.523438 12.496094 2.519531 12.503906 C 2.515625 12.507812 2.511719 12.515625 2.507812 12.523438 C 2.503906 12.527344 2.5 12.535156 2.496094 12.542969 C 2.488281 12.546875 2.484375 12.554688 2.480469 12.558594 C 2.472656 12.5625 2.46875 12.570312 2.460938 12.574219 C 2.457031 12.578125 2.449219 12.582031 2.445312 12.585938 C 2.4375 12.589844 2.429688 12.59375 2.425781 12.597656 C 2.417969 12.601562 2.410156 12.605469 2.402344 12.609375 C 2.394531 12.613281 2.390625 12.613281 2.382812 12.617188 C 2.375 12.621094 2.367188 12.621094 2.359375 12.621094 C 2.351562 12.625 2.34375 12.625 2.335938 12.625 C 2.328125 12.625 2.320312 12.628906 2.3125 12.628906 Z M 2.3125 12.628906 "/>
</g>
<path style=" stroke:none;fill-rule:nonzero;fill:rgb(0%,16.862746%,20.784314%);fill-opacity:1;" d="M 2.261719 12.140625 C 2.261719 12.144531 2.261719 12.152344 2.257812 12.15625 C 2.257812 12.164062 2.257812 12.171875 2.253906 12.175781 C 2.25 12.183594 2.25 12.1875 2.246094 12.191406 C 2.242188 12.199219 2.238281 12.203125 2.234375 12.207031 C 2.230469 12.210938 2.222656 12.214844 2.21875 12.21875 C 2.214844 12.222656 2.207031 12.226562 2.203125 12.230469 C 2.195312 12.230469 2.191406 12.234375 2.183594 12.234375 C 2.175781 12.234375 2.171875 12.234375 2.164062 12.234375 C 2.15625 12.234375 2.152344 12.234375 2.144531 12.234375 C 2.140625 12.234375 2.132812 12.230469 2.128906 12.230469 C 2.121094 12.226562 2.117188 12.222656 2.109375 12.21875 C 2.105469 12.214844 2.101562 12.210938 2.09375 12.207031 C 2.089844 12.203125 2.085938 12.199219 2.082031 12.191406 C 2.078125 12.1875 2.078125 12.183594 2.074219 12.175781 C 2.070312 12.171875 2.070312 12.164062 2.070312 12.15625 C 2.066406 12.152344 2.066406 12.144531 2.066406 12.140625 C 2.066406 12.132812 2.066406 12.125 2.070312 12.121094 C 2.070312 12.113281 2.070312 12.109375 2.074219 12.101562 C 2.078125 12.09375 2.078125 12.089844 2.082031 12.085938 C 2.085938 12.078125 2.089844 12.074219 2.09375 12.070312 C 2.101562 12.066406 2.105469 12.0625 2.109375 12.058594 C 2.117188 12.054688 2.121094 12.050781 2.128906 12.050781 C 2.132812 12.046875 2.140625 12.042969 2.144531 12.042969 C 2.152344 12.042969 2.15625 12.042969 2.164062 12.042969 C 2.171875 12.042969 2.175781 12.042969 2.183594 12.042969 C 2.191406 12.042969 2.195312 12.046875 2.203125 12.050781 C 2.207031 12.050781 2.214844 12.054688 2.21875 12.058594 C 2.222656 12.0625 2.230469 12.066406 2.234375 12.070312 C 2.238281 12.074219 2.242188 12.078125 2.246094 12.085938 C 2.25 12.089844 2.25 12.09375 2.253906 12.101562 C 2.257812 12.109375 2.257812 12.113281 2.257812 12.121094 C 2.261719 12.125 2.261719 12.132812 2.261719 12.140625 Z M 2.261719 12.140625 "/>
<path style=" stroke:none;fill-rule:nonzero;fill:rgb(0%,16.862746%,20.784314%);fill-opacity:1;" d="M 2.539062 12.140625 C 2.539062 12.144531 2.539062 12.152344 2.535156 12.15625 C 2.535156 12.164062 2.535156 12.171875 2.53125 12.175781 C 2.527344 12.183594 2.527344 12.1875 2.523438 12.191406 C 2.519531 12.199219 2.515625 12.203125 2.511719 12.207031 C 2.503906 12.210938 2.5 12.214844 2.496094 12.21875 C 2.488281 12.222656 2.484375 12.226562 2.480469 12.230469 C 2.472656 12.230469 2.464844 12.234375 2.460938 12.234375 C 2.453125 12.234375 2.449219 12.234375 2.441406 12.234375 C 2.433594 12.234375 2.429688 12.234375 2.421875 12.234375 C 2.417969 12.234375 2.410156 12.230469 2.402344 12.230469 C 2.398438 12.226562 2.394531 12.222656 2.386719 12.21875 C 2.382812 12.214844 2.378906 12.210938 2.371094 12.207031 C 2.367188 12.203125 2.363281 12.199219 2.359375 12.191406 C 2.355469 12.1875 2.355469 12.183594 2.351562 12.175781 C 2.347656 12.171875 2.347656 12.164062 2.347656 12.15625 C 2.34375 12.152344 2.34375 12.144531 2.34375 12.140625 C 2.34375 12.132812 2.34375 12.125 2.347656 12.121094 C 2.347656 12.113281 2.347656 12.109375 2.351562 12.101562 C 2.355469 12.09375 2.355469 12.089844 2.359375 12.085938 C 2.363281 12.078125 2.367188 12.074219 2.371094 12.070312 C 2.378906 12.066406 2.382812 12.0625 2.386719 12.058594 C 2.394531 12.054688 2.398438 12.050781 2.402344 12.050781 C 2.410156 12.046875 2.417969 12.042969 2.421875 12.042969 C 2.429688 12.042969 2.433594 12.042969 2.441406 12.042969 C 2.449219 12.042969 2.453125 12.042969 2.460938 12.042969 C 2.464844 12.042969 2.472656 12.046875 2.480469 12.050781 C 2.484375 12.050781 2.488281 12.054688 2.496094 12.058594 C 2.5 12.0625 2.503906 12.066406 2.511719 12.070312 C 2.515625 12.074219 2.519531 12.078125 2.523438 12.085938 C 2.527344 12.089844 2.527344 12.09375 2.53125 12.101562 C 2.535156 12.109375 2.535156 12.113281 2.535156 12.121094 C 2.539062 12.125 2.539062 12.132812 2.539062 12.140625 Z M 2.539062 12.140625 "/>
<path style=" stroke:none;fill-rule:nonzero;fill:rgb(0%,16.862746%,20.784314%);fill-opacity:1;" d="M 2.4375 12.273438 C 2.402344 12.253906 2.359375 12.242188 2.320312 12.238281 C 2.316406 12.238281 2.3125 12.238281 2.308594 12.238281 C 2.308594 12.238281 2.304688 12.242188 2.304688 12.242188 C 2.289062 12.269531 2.28125 12.296875 2.285156 12.328125 C 2.28125 12.328125 2.28125 12.332031 2.285156 12.332031 C 2.289062 12.347656 2.292969 12.359375 2.304688 12.371094 C 2.3125 12.382812 2.320312 12.394531 2.335938 12.402344 C 2.34375 12.410156 2.355469 12.410156 2.371094 12.410156 C 2.378906 12.410156 2.386719 12.410156 2.394531 12.410156 C 2.398438 12.40625 2.402344 12.40625 2.40625 12.40625 C 2.40625 12.40625 2.410156 12.40625 2.410156 12.402344 C 2.414062 12.402344 2.414062 12.402344 2.414062 12.398438 C 2.414062 12.398438 2.417969 12.394531 2.417969 12.394531 C 2.417969 12.390625 2.417969 12.390625 2.417969 12.386719 C 2.410156 12.367188 2.402344 12.347656 2.386719 12.335938 C 2.40625 12.328125 2.425781 12.3125 2.445312 12.296875 C 2.445312 12.292969 2.445312 12.292969 2.445312 12.289062 C 2.445312 12.289062 2.445312 12.285156 2.445312 12.28125 C 2.445312 12.28125 2.445312 12.277344 2.445312 12.277344 C 2.441406 12.277344 2.441406 12.273438 2.4375 12.273438 Z M 2.351562 12.347656 C 2.371094 12.355469 2.378906 12.367188 2.382812 12.382812 C 2.371094 12.386719 2.363281 12.386719 2.347656 12.378906 C 2.335938 12.371094 2.328125 12.359375 2.320312 12.34375 C 2.324219 12.34375 2.328125 12.347656 2.332031 12.347656 C 2.335938 12.347656 2.34375 12.34375 2.347656 12.34375 C 2.347656 12.347656 2.351562 12.347656 2.351562 12.347656 Z M 2.3125 12.316406 C 2.3125 12.296875 2.316406 12.28125 2.324219 12.265625 C 2.351562 12.269531 2.382812 12.277344 2.410156 12.289062 C 2.382812 12.3125 2.34375 12.324219 2.3125 12.316406 Z M 2.3125 12.316406 "/>
<path style=" stroke:none;fill-rule:nonzero;fill:rgb(0%,16.862746%,20.784314%);fill-opacity:1;" d="M 2.132812 11.945312 C 2.132812 11.945312 2.136719 11.945312 2.136719 11.945312 C 2.136719 11.945312 2.140625 11.945312 2.140625 11.945312 C 2.144531 11.945312 2.144531 11.945312 2.144531 11.941406 C 2.148438 11.941406 2.148438 11.941406 2.148438 11.9375 C 2.148438 11.9375 2.148438 11.933594 2.148438 11.933594 C 2.148438 11.929688 2.148438 11.929688 2.148438 11.925781 C 2.148438 11.925781 2.148438 11.925781 2.144531 11.921875 C 2.144531 11.921875 2.144531 11.921875 2.140625 11.921875 C 2.136719 11.917969 2.128906 11.917969 2.125 11.914062 C 2.117188 11.914062 2.113281 11.914062 2.105469 11.914062 C 2.101562 11.914062 2.09375 11.914062 2.089844 11.914062 C 2.082031 11.914062 2.078125 11.917969 2.070312 11.917969 C 2.066406 11.921875 2.0625 11.921875 2.054688 11.925781 C 2.050781 11.929688 2.046875 11.933594 2.042969 11.9375 C 2.035156 11.941406 2.03125 11.945312 2.027344 11.949219 C 2.023438 11.953125 2.023438 11.957031 2.019531 11.964844 C 2.019531 11.964844 2.015625 11.96875 2.015625 11.96875 C 2.015625 11.972656 2.015625 11.972656 2.015625 11.976562 C 2.019531 11.976562 2.019531 11.976562 2.019531 11.980469 C 2.019531 11.980469 2.023438 11.984375 2.023438 11.984375 C 2.027344 11.984375 2.027344 11.984375 2.027344 11.984375 C 2.03125 11.984375 2.03125 11.984375 2.035156 11.984375 C 2.035156 11.984375 2.039062 11.984375 2.039062 11.980469 C 2.042969 11.980469 2.042969 11.980469 2.042969 11.976562 C 2.046875 11.972656 2.046875 11.96875 2.050781 11.96875 C 2.054688 11.964844 2.054688 11.960938 2.058594 11.957031 C 2.0625 11.957031 2.066406 11.953125 2.070312 11.949219 C 2.074219 11.949219 2.078125 11.945312 2.082031 11.945312 C 2.085938 11.945312 2.089844 11.941406 2.09375 11.941406 C 2.097656 11.941406 2.101562 11.941406 2.105469 11.941406 C 2.109375 11.941406 2.113281 11.941406 2.121094 11.941406 C 2.125 11.945312 2.128906 11.945312 2.132812 11.945312 Z M 2.132812 11.945312 "/>
<path style=" stroke:none;fill-rule:nonzero;fill:rgb(100%,100%,100%);fill-opacity:1;" d="M 2.164062 12.128906 C 2.164062 12.132812 2.164062 12.140625 2.160156 12.144531 C 2.160156 12.148438 2.15625 12.152344 2.152344 12.15625 C 2.148438 12.160156 2.144531 12.160156 2.140625 12.164062 C 2.136719 12.164062 2.132812 12.167969 2.125 12.167969 C 2.121094 12.167969 2.117188 12.164062 2.113281 12.164062 C 2.109375 12.160156 2.105469 12.160156 2.101562 12.15625 C 2.097656 12.152344 2.09375 12.148438 2.09375 12.144531 C 2.089844 12.140625 2.089844 12.132812 2.089844 12.128906 C 2.089844 12.125 2.089844 12.121094 2.09375 12.113281 C 2.09375 12.109375 2.097656 12.105469 2.101562 12.101562 C 2.105469 12.097656 2.109375 12.097656 2.113281 12.09375 C 2.117188 12.09375 2.121094 12.089844 2.125 12.089844 C 2.132812 12.089844 2.136719 12.09375 2.140625 12.09375 C 2.144531 12.097656 2.148438 12.097656 2.152344 12.101562 C 2.15625 12.105469 2.160156 12.109375 2.160156 12.113281 C 2.164062 12.121094 2.164062 12.125 2.164062 12.128906 Z M 2.164062 12.128906 "/>
<path style=" stroke:none;fill-rule:nonzero;fill:rgb(100%,100%,100%);fill-opacity:1;" d="M 2.441406 12.128906 C 2.441406 12.132812 2.441406 12.140625 2.4375 12.144531 C 2.4375 12.148438 2.433594 12.152344 2.429688 12.15625 C 2.425781 12.160156 2.421875 12.160156 2.417969 12.164062 C 2.414062 12.164062 2.40625 12.167969 2.402344 12.167969 C 2.398438 12.167969 2.394531 12.164062 2.390625 12.164062 C 2.382812 12.160156 2.378906 12.160156 2.375 12.15625 C 2.375 12.152344 2.371094 12.148438 2.367188 12.144531 C 2.367188 12.140625 2.367188 12.132812 2.367188 12.128906 C 2.367188 12.125 2.367188 12.121094 2.367188 12.113281 C 2.371094 12.109375 2.375 12.105469 2.375 12.101562 C 2.378906 12.097656 2.382812 12.097656 2.390625 12.09375 C 2.394531 12.09375 2.398438 12.089844 2.402344 12.089844 C 2.40625 12.089844 2.414062 12.09375 2.417969 12.09375 C 2.421875 12.097656 2.425781 12.097656 2.429688 12.101562 C 2.433594 12.105469 2.4375 12.109375 2.4375 12.113281 C 2.441406 12.121094 2.441406 12.125 2.441406 12.128906 Z M 2.441406 12.128906 "/>
</g>
</svg>
